<?xml version="1.0" standalone="no"?>
<!DOCTYPE svg PUBLIC "-//W3C//DTD SVG 1.1//EN" "http://www.w3.org/Graphics/SVG/1.1/DTD/svg11.dtd" >
<svg xmlns="http://www.w3.org/2000/svg">
<metadata>
This is a custom SVG webfont generated by Font Squirrel.
Designer    : Jeremy Mickel
Foundry     : Jeremy Mickel
Foundry URL : http://vllg.com/
</metadata>
<defs>
<font id="webfontM8wkyCIS" horiz-adv-x="630" >
<font-face units-per-em="1000" ascent="750" descent="-250" />
<missing-glyph horiz-adv-x="210" />
<glyph unicode=" "  horiz-adv-x="210" />
<glyph unicode="&#x09;" horiz-adv-x="210" />
<glyph unicode="&#xa0;" horiz-adv-x="210" />
<glyph unicode="!" horiz-adv-x="222" d="M111 -6q-19 0 -33.5 14t-14.5 34t14.5 34t33.5 14t33.5 -14t14.5 -34t-14.5 -34t-33.5 -14zM143 240l3 -50q0 -16 -10 -26t-25 -10t-25 10t-10 26l3 50l-7 391l-4 54q0 19 11.5 32t31.5 13t31.5 -13t11.5 -32l-4 -54z" />
<glyph unicode="&#x22;" horiz-adv-x="300" d="M250 599l3 -47q0 -17 -10 -27.5t-26 -10.5t-26 10.5t-10 27.5l3 46v5l-8 73q0 18 11 30.5t29.5 12.5t30.5 -12.5t12 -30.5l-9 -73v-4zM123 599l3 -47q0 -17 -10 -27.5t-26 -10.5t-26 10.5t-10 27.5l3 46v5l-8 73q0 18 11 30.5t29.5 12.5t30.5 -12.5t12 -30.5l-9 -73v-4z " />
<glyph unicode="#" horiz-adv-x="599" d="M509 183l-51 4h-31l-18 -107q-1 -8 -2 -26t-3 -27q-7 -33 -37 -33q-15 0 -25 11t-10 25t6 35.5t7 26.5l16 95h-177l-18 -107q-2 -8 -3 -26t-2 -27q-7 -33 -37 -33q-15 0 -25 11t-10 25t6 35.5t7 26.5l16 95h-15l-51 -4q-16 0 -26 10t-10 25t10 25t26 10l51 -4h25l31 180 h-19l-51 -4q-16 0 -26 10t-10 25t10 25t26 10l51 -4h29l19 107q2 8 3 26t2 27q7 33 37 33q15 0 25 -11t10 -25t-6 -35.5t-7 -26.5l-17 -95h177l19 107q1 8 2 26t3 27q7 33 37 33q15 0 25 -11t10 -25t-6 -35.5t-7 -26.5l-17 -95h17l51 4q16 0 26 -10t10 -25t-10 -25t-26 -10 l-51 4h-27l-31 -180h21l51 4q16 0 26 -10t10 -25t-10 -25t-26 -10zM225 429l-31 -180h177l31 180h-177z" />
<glyph unicode="$" horiz-adv-x="548" d="M308 -17l5 -52q0 -16 -11 -27t-27 -11t-27 11t-11 27l5 52v4q-72 6 -122 41q-79 54 -79 129q0 17 10.5 27t26 10t25 -10t10.5 -26q2 -42 37.5 -72t93.5 -36v278q-171 59 -171 192q0 71 46.5 117t121.5 54v10l-4 53q0 16 11 26.5t27 10.5t27 -10.5t11 -26.5l-5 -53v-10 q103 -13 151 -94q12 -22 12 -38.5t-9.5 -27t-32 -10.5t-29.5 28q-20 66 -94 79v-246q94 -31 142.5 -85t48.5 -122t-50 -122.5t-139 -64.5v-5zM426 178q0 88 -120 132v-258q57 9 88.5 44.5t31.5 81.5zM169.5 593q-27.5 -29 -27.5 -70t21.5 -71.5t80.5 -52.5v230 q-47 -7 -74.5 -36z" />
<glyph unicode="%" horiz-adv-x="924" d="M833.5 356.5q42.5 -59.5 42.5 -153t-42.5 -153t-121 -59.5t-121 59.5t-42.5 153t42.5 153t121 59.5t121 -59.5zM636 88.5q28 -42.5 76.5 -42.5t76.5 42.5t28 115t-28 115t-76.5 42.5t-76.5 -42.5t-28 -115t28 -115zM332.5 635.5q42.5 -59.5 42.5 -153t-42.5 -153 t-121 -59.5t-121 59.5t-42.5 153t42.5 153t121 59.5t121 -59.5zM135 367.5q28 -42.5 76.5 -42.5t76.5 42.5t28 115t-28 115t-76.5 42.5t-76.5 -42.5t-28 -115t28 -115zM579 649.5q5 16.5 13 31.5t26.5 15t28.5 -10q9 -10 9 -23q0 -17 -16 -41q-8 -11 -12 -19l-265 -541 q-2 -5 -7 -22q-14 -46 -42 -46q-16 0 -26 10q-9 10 -9 23q0 17 17 41q7 11 11 19l265 541q2 5 7 21.5z" />
<glyph unicode="&#x26;" horiz-adv-x="699" d="M532 237v21q0 13 11 23.5t25.5 10.5t25.5 -12t11 -41.5t-34 -87.5l-12 -20l34 -34q23 -23 41 -35q12 -11 12 -26t-10.5 -26t-26.5 -11t-28 13q-25 31 -34 41l-25 25q-90 -92 -217.5 -92t-189.5 60t-62 147q0 127 141 208l9 5q-82 92 -82 164.5t43 115.5t111 43t110 -43 t42 -110q0 -106 -128 -181l-1 -1l215 -217q19 38 19 60zM298 47q113 0 180 77l-234 239l-13 -8q-110 -65 -110 -159q0 -60 46 -104.5t131 -44.5zM184 579q0 -62 73 -142l10 6q96 56 96 129q0 41 -22 71.5t-66 30.5t-67.5 -29.5t-23.5 -65.5z" />
<glyph unicode="'" horiz-adv-x="173" d="M117 599l3 -47q0 -17 -10 -27.5t-26 -10.5t-26 10.5t-10 27.5l3 46v5l-8 73q0 18 11 30.5t29.5 12.5t30.5 -12.5t12 -30.5l-9 -73v-4z" />
<glyph unicode="(" horiz-adv-x="332" d="M62 311q0 143 58 251t151 165q25 16 38 16t22 -8t9 -27.5t-35 -35.5q-75 -34 -127.5 -131.5t-52.5 -229.5t52.5 -229.5t127.5 -131.5q35 -16 35 -36q0 -35 -30 -35q-14 0 -39 16q-93 57 -151 165t-58 251z" />
<glyph unicode=")" horiz-adv-x="332" d="M264 311q0 -143 -58 -251t-151 -165q-25 -16 -38 -16t-22 8t-9 27.5t35 35.5q75 34 127.5 131.5t52.5 229.5t-52.5 229.5t-127.5 131.5q-35 16 -35 36q0 35 30 35q14 0 39 -16q93 -57 151 -165t58 -251z" />
<glyph unicode="*" horiz-adv-x="374" d="M224 693l-6 -58v-38l42 14q9 3 24 11q23 11 34 11t22 -9.5t11 -30.5q0 -27 -49 -33q-19 -3 -29 -6l-40 -14l31 -43q6 -8 18 -20q22 -22 22 -36.5t-10 -25t-26 -10.5t-23.5 10t-16.5 27.5t-15 26.5l-26 37l-26 -37q-6 -9 -15 -26.5t-16.5 -27.5t-23.5 -10t-26 10.5 t-10 22.5t5 19.5t17 19.5t18 20l30 43l-39 14q-10 3 -28.5 5.5t-23.5 4.5q-26 8 -26 29t11 30.5t19.5 9.5t15 -2t21.5 -9.5t24 -10.5l42 -14v38l-6 58q0 15 11 25.5t26 10.5t26 -10.5t11 -25.5z" />
<glyph unicode="+" horiz-adv-x="486" d="M278 174l4 -54q0 -18 -11 -29t-28 -11t-28 11t-11 29l4 54v62h-51l-54 -5q-18 0 -29 11t-11 28t11 28t29 11l54 -5h51v57l-4 54q0 18 11 29t28 11t28 -11t11 -29l-4 -54v-57h51l54 5q18 0 29 -11t11 -28t-11 -28t-29 -11l-54 5h-51v-62z" />
<glyph unicode="," horiz-adv-x="236" d="M117 -13q0 7 -13 7t-27 14.5t-14 34t14 33.5t37.5 14t39.5 -22q18 -22 18 -60q0 -70 -42 -118q-15 -18 -30.5 -18t-24.5 8.5t-9 23t25.5 34.5t25.5 49z" />
<glyph unicode="-" horiz-adv-x="385" d="M145 236l-49 -4q-16 0 -26.5 11t-10.5 26t10.5 26t26.5 11l49 -4h95l49 4q16 0 26.5 -11t10.5 -26t-10.5 -26t-26.5 -11l-49 4h-95z" />
<glyph unicode="." horiz-adv-x="222" d="M111 -6q-19 0 -33.5 14t-14.5 34t14.5 34t33.5 14t33.5 -14t14.5 -34t-14.5 -34t-33.5 -14z" />
<glyph unicode="/" horiz-adv-x="440" d="M380 707q11 22 30.5 22t30.5 -11t11 -24q0 -11 -7 -23q-4 -8 -12 -20t-12 -20l-348 -719q-3 -7 -8.5 -24t-9.5 -25q-11 -22 -30.5 -22t-30.5 11t-11 24q0 11 7 23q4 8 12 20t12 20l348 719q3 7 8.5 24t9.5 25z" />
<glyph unicode="0" horiz-adv-x="655" d="M520.5 595.5q69.5 -97.5 69.5 -256t-69.5 -255.5t-193 -97t-193 97t-69.5 255.5t70 256t193 97.5t192.5 -97.5zM184.5 126.5q52.5 -76.5 142.5 -76.5t142 76.5t52 213t-52 214t-142 77.5t-142.5 -77.5t-52.5 -214t52.5 -213z" />
<glyph unicode="1" horiz-adv-x="334" d="M233 91l4 -56q0 -18 -11.5 -29.5t-28 -11.5t-27.5 11t-11 30l3 56v443q0 36 3 62l-21 -22q-39 -39 -69 -39q-57 0 -57 37q0 15 10 25.5t24 10.5l28 -6q7 0 22 14l49 49q15 15 24 19t24.5 4t26.5 -11t11 -27l-4 -53v-506z" />
<glyph unicode="2" horiz-adv-x="526" d="M404 65l50 6q15 0 25.5 -10.5t10.5 -25.5t-10.5 -25t-25.5 -10h-362q-22 0 -37.5 13.5t-15.5 39.5q0 103 45.5 174t143.5 123l81 43q94 51 94 126q0 49 -38 79.5t-100 30.5t-96.5 -28.5t-39.5 -78.5q-1 -18 -12 -28t-25.5 -10t-25.5 10.5t-11 31t18 61.5t70.5 71.5 t134.5 30.5t138 -49t56 -114t-33 -109.5t-108 -85.5l-82 -45q-78 -43 -108 -94t-32 -127h295z" />
<glyph unicode="3" horiz-adv-x="529" d="M162 617l-49 -6q-15 0 -25.5 9.5t-10.5 24.5t10 24t26 9h318q17 0 26.5 -9.5t9.5 -29t-27 -47.5l-133 -136l-8 -8l-11 -10q-6 -5 -10 -8q90 0 150 -56t60 -154t-69 -165.5t-187 -67.5t-186 90q-25 31 -25 51q0 38 33 38q27 0 37 -31q13 -43 53.5 -65.5t107.5 -22.5 t119 52t52 125t-45.5 114.5t-126.5 41.5l-40 -3q-13 0 -21 8.5t-8 20.5t8.5 20.5t27.5 24t25 21.5l108 111q24 24 36 34h-225z" />
<glyph unicode="4" horiz-adv-x="536" d="M419 89l4 -55q0 -18 -10.5 -29t-27.5 -11t-27.5 11t-10.5 29l4 55v108h-294q-15 0 -24 10.5t-9 28.5v19q0 21 11 36l241 327l12 18q23 34 34 38t19 4h48q15 0 24 -10.5t9 -28.5l-3 -52v-329h13l51 7q15 0 25.5 -9.5t10.5 -24t-10.5 -24.5t-25.5 -10h-64v-108zM351 258 v359l-262 -359h262z" />
<glyph unicode="5" horiz-adv-x="544" d="M428 610l-50 7h-213l-31 -209q60 49 156.5 49t159.5 -64t63 -165.5t-72.5 -171t-191.5 -69.5t-187 90q-26 34 -26 52t10.5 28t26.5 10q23 0 35.5 -37.5t52.5 -60t110 -22.5t122.5 54.5t52.5 129.5t-45 122t-127 47t-140 -52q-14 -14 -32 -14t-27.5 10t-9.5 20.5t1 16 t3 12.5t3 14l31 185q3 17 3 41q0 45 36 45h286q15 0 26 -10t11 -24.5t-11 -24t-26 -9.5z" />
<glyph unicode="6" horiz-adv-x="588" d="M333 693q55 0 96 -17.5t63 -38.5t22 -38t-11 -27t-28 -10t-29 16q-39 55 -123 55t-142 -76t-65 -207q29 45 85 75.5t115 30.5q105 0 168 -65.5t63 -164.5t-67 -169t-177 -70t-181.5 90.5t-71.5 254.5t81.5 262.5t201.5 98.5zM310 400q-127 0 -194 -116q7 -114 59 -174.5 t131.5 -60.5t127 53t47.5 127.5t-47 122.5t-124 48z" />
<glyph unicode="7" horiz-adv-x="466" d="M199 91l5 -56q0 -19 -11 -30t-28.5 -11t-28.5 11.5t-11 29.5l4 56q1 136 43 255.5t114 197.5q27 30 78 71h-269l-47 -6q-16 0 -26 9.5t-10 24.5t10 25t26 10h367q17 0 28.5 -9.5t11.5 -25.5t-8 -27t-29 -28q-219 -173 -219 -497z" />
<glyph unicode="8" horiz-adv-x="576" d="M463 44q-67 -57 -175.5 -57t-175 63.5t-66.5 149.5q0 59 34.5 110t100.5 77q-85 48 -85 143q0 68 51 115.5t140 47.5t141 -50t52 -119q0 -89 -91 -146q141 -60 141 -182q0 -95 -67 -152zM234 363q-121 -49 -121 -164q0 -56 48 -103t127 -47t127 40.5t48 105.5 q0 105 -155 148zM160 531q0 -85 111 -115l65 -18q79 45 79 124q0 47 -34 80t-94 33t-93.5 -29.5t-33.5 -74.5z" />
<glyph unicode="9" horiz-adv-x="586" d="M402.5 119q55.5 71 65.5 197q-32 -41 -85 -67t-111 -26q-104 0 -167.5 66.5t-63.5 165.5t67 168.5t178 69.5t180.5 -90t69.5 -255t-80 -263t-189.5 -98t-170.5 57q-22 22 -22 38t11 26.5t28 10.5t33 -25q30 -46 115.5 -46t141 71zM154 330q47 -47 116 -47q134 0 200 99 q-4 120 -56 185.5t-132 65.5t-127.5 -53.5t-47.5 -128t47 -121.5z" />
<glyph unicode=":" horiz-adv-x="222" d="M111 326q-19 0 -33.5 14t-14.5 34t14.5 34t33.5 14t33.5 -14t14.5 -34t-14.5 -34t-33.5 -14zM111 -6q-19 0 -33.5 14t-14.5 34t14.5 34t33.5 14t33.5 -14t14.5 -34t-14.5 -34t-33.5 -14z" />
<glyph unicode=";" horiz-adv-x="236" d="M117 326q-19 0 -33.5 14t-14.5 34t14.5 34t33.5 14t33.5 -14t14.5 -34t-14.5 -34t-33.5 -14zM117 -13q0 7 -13 7t-27 14.5t-14 34t14 33.5t37.5 14t39.5 -22q18 -22 18 -60q0 -70 -42 -118q-15 -18 -30.5 -18t-24.5 8.5t-9 23t25.5 34.5t25.5 49z" />
<glyph unicode="&#x3c;" horiz-adv-x="484" d="M363.5 51.5q-9.5 -9.5 -23.5 -9.5t-20 5l-209 168q-4 3 -14.5 10t-22.5 17t-12 30t22 36l26 18q197 156 206.5 164.5t23.5 8.5t23.5 -9.5t9.5 -25t-9.5 -23.5t-21.5 -15.5t-21 -14.5l-184 -140l184 -141q9 -7 21 -14.5t21.5 -15.5t9.5 -23.5t-9.5 -25z" />
<glyph unicode="=" horiz-adv-x="486" d="M152 159l-54 -4q-18 0 -29 11t-11 28t11 28t29 11l54 -4h182l54 4q18 0 29 -11t11 -28t-11 -28t-29 -11l-54 4h-182zM152 300l-54 -4q-18 0 -29 11t-11 28t11 28t29 11l54 -4h182l54 4q18 0 29 -11t11 -28t-11 -28t-29 -11l-54 4h-182z" />
<glyph unicode="&#x3e;" horiz-adv-x="484" d="M386.5 225q-10.5 -7 -96.5 -75l-127 -103q-6 -5 -20 -5t-23.5 9.5t-9.5 25t9.5 23.5t21.5 15.5t21 14.5l183 141l-183 140q-9 7 -21 14.5t-21.5 15.5t-9.5 23.5t9.5 25t23.5 9.5t20 -5l210 -168l26 -18q22 -16 22 -36t-12 -30t-22.5 -17z" />
<glyph unicode="?" horiz-adv-x="496" d="M100 561l7 -40q0 -14 -9.5 -24t-23.5 -10q-46 0 -46 66t58.5 121t154 55t154 -55t58.5 -139t-99 -156q-46 -34 -67 -54q-36 -34 -36 -82l10 -37q0 -16 -11.5 -27.5t-29 -11.5t-29.5 17t-12 60q0 96 130 183q74 49 74 118q0 49 -38 84.5t-105 35.5t-103.5 -32.5 t-36.5 -71.5zM226 -6q-20 0 -34 14t-14 34t14 34t34 14t34 -14t14 -34t-14 -34t-34 -14z" />
<glyph unicode="@" horiz-adv-x="775" d="M527 366l-5 -38v-135q0 -61 46 -61q39 0 69.5 36.5t30.5 106.5q0 114 -77 188t-200 74t-201 -85.5t-78 -214.5t80 -214t205 -85t198 58q4 3 13 12q18 21 31 21q32 0 32 -26q0 -21 -31 -42q-104 -68 -244.5 -68t-235.5 98.5t-95 244.5t92.5 244.5t233.5 98.5t232.5 -85 t91.5 -220q0 -86 -40.5 -137.5t-99.5 -51.5t-87 31q-39 -52 -107.5 -52t-114 49.5t-45.5 122.5t47.5 121.5t104 48.5t91.5 -33q6 24 25.5 24t28.5 -9.5t9 -21.5zM310.5 149.5q27.5 -33.5 80.5 -33.5t77 39q-4 16 -4 39v127q-30 36 -77 36t-75.5 -33.5t-28.5 -87t27.5 -87z " />
<glyph unicode="A" d="M102 22q-10 -28 -32 -28q-43 0 -45 37q0 12 10.5 35.5t13.5 32.5l194 535l9 29q6 19 7 23q12 33 52 33h9q39 0 51 -33q1 -4 7 -23l203 -564q3 -9 11 -27q13 -28 13 -42q0 -15 -12 -26q-11 -10 -33 -10t-32 28q-2 5 -6.5 25t-7.5 29l-36 102h-327l-35 -102q-3 -9 -7.5 -29 t-6.5 -25zM295 590l-122 -349h283l-143 410q-6 -24 -18 -61z" />
<glyph unicode="B" horiz-adv-x="632" d="M112 615l-4 57q0 19 11.5 30.5t31.5 11.5h158q105 0 160.5 -50t55.5 -133q0 -40 -24.5 -84t-66.5 -64q63 -17 102 -63t39 -114q0 -93 -65 -149.5t-169 -56.5h-189q-20 0 -32 11.5t-12 30.5l4 57v516zM350 341h-166v-277h157q76 0 119 39.5t43 102.5t-43.5 99t-109.5 36z M184 650v-246h146q54 0 89.5 37t35.5 90q0 119 -146 119h-125z" />
<glyph unicode="C" horiz-adv-x="716" d="M383 -14q-141 0 -225.5 104.5t-84.5 267.5t84.5 267t225.5 104q69 0 129.5 -29.5t97.5 -84.5q22 -32 22 -51t-10.5 -30.5t-33 -11.5t-32.5 30q-20 54 -66 83.5t-107 29.5q-107 0 -172 -89t-65 -219t65 -217.5t172 -87.5q74 0 123 36t67 97q9 32 32 32t33.5 -12 t10.5 -26.5t-15 -44.5q-36 -68 -101 -108t-150 -40z" />
<glyph unicode="D" horiz-adv-x="701" d="M108 42l4 57v516l-4 57q0 19 11.5 30.5t31.5 11.5h172q145 0 225 -89.5t80 -258.5t-80.5 -267.5t-229.5 -98.5h-166q-20 0 -32 11.5t-12 30.5zM184 650v-586h134q115 0 176 82.5t61 219.5t-58 210.5t-167 73.5h-146z" />
<glyph unicode="E" horiz-adv-x="570" d="M475 641l-52 7h-239v-232h170l49 4q16 0 26.5 -11t10.5 -26t-10.5 -26t-26.5 -11l-49 4h-170v-284h264l52 7q15 0 26 -11t11 -26t-10.5 -25.5t-26.5 -10.5h-348q-20 0 -32 11.5t-12 30.5l4 57v516l-4 57q0 19 12 30.5t32 11.5h323q16 0 26.5 -10.5t10.5 -25.5t-11 -26 t-26 -11z" />
<glyph unicode="F" horiz-adv-x="535" d="M475 641l-52 7h-239v-242h175l49 4q16 0 26.5 -11t10.5 -26t-10.5 -26t-26.5 -11l-49 4h-175v-246l4 -58q0 -19 -11.5 -30.5t-28.5 -11.5t-28.5 11.5t-11.5 30.5l4 58v521l-4 57q0 19 12 30.5t32 11.5h323q16 0 26.5 -10.5t10.5 -25.5t-11 -26t-26 -11z" />
<glyph unicode="G" horiz-adv-x="725" d="M429 335l54 -4h131q43 0 43 -45v-18q0 -116 -71 -199t-207.5 -83t-221 104.5t-84.5 267t87 267.5q85 104 225 104h3q76 0 140 -35t98 -98q11 -20 11 -34.5t-10.5 -26t-33.5 -11.5t-32 28q-18 49 -62 81.5t-111 32.5q-113 0 -177.5 -88.5t-64.5 -219.5t64.5 -219 t167.5 -88t155 60.5t52 148.5v7h-102l-54 -4q-17 0 -27.5 10.5t-10.5 25.5t10.5 25.5t27.5 10.5z" />
<glyph unicode="H" horiz-adv-x="745" d="M184 94l4 -58q0 -19 -11.5 -30.5t-28.5 -11.5t-28.5 11.5t-11.5 30.5l4 58v526l-4 58q0 19 11.5 30.5t28.5 11.5t28.5 -11.5t11.5 -30.5l-4 -58v-207h377v207l-4 58q0 19 11.5 30.5t28.5 11.5t28.5 -11.5t11.5 -30.5l-4 -58v-526l4 -58q0 -19 -11.5 -30.5t-28.5 -11.5 t-28.5 11.5t-11.5 30.5l4 58v255h-377v-255z" />
<glyph unicode="I" horiz-adv-x="314" d="M117 36l4 58v526l-4 58q0 19 11.5 30.5t28.5 11.5t28.5 -11.5t11.5 -30.5l-4 -58v-526l4 -58q0 -19 -11.5 -30.5t-28.5 -11.5t-28.5 11.5t-11.5 30.5z" />
<glyph unicode="J" horiz-adv-x="572" d="M479 678l-4 -58l1 -374q0 -260 -228 -260q-65 0 -118 28t-83 81q-18 29 -18 47.5t10.5 30t27.5 11.5q28 0 41 -43t50.5 -67t89.5 -24q155 0 155 191v379l-4 58q0 19 11.5 30.5t28.5 11.5t28.5 -11.5t11.5 -30.5z" />
<glyph unicode="K" horiz-adv-x="612" d="M108 36l4 58v526l-4 58q0 19 11.5 30.5t28.5 11.5t28.5 -11.5t11.5 -30.5l-4 -58v-100q0 -28 -0.5 -75.5t-0.5 -62.5l138 149l121 135q6 7 14 18l14 18q15 18 32 18t27.5 -10.5t10.5 -25.5t-9 -25.5t-22 -22t-19 -17.5l-176 -191l228 -327q4 -6 18 -21q27 -32 27 -47.5 t-10.5 -27t-30.5 -11.5t-28 11t-18 28.5t-16 26.5l-218 320l-82 -84v-202l4 -58q0 -19 -11.5 -30.5t-28.5 -11.5t-28.5 11.5t-11.5 30.5z" />
<glyph unicode="L" horiz-adv-x="581" d="M188 678l-4 -58v-552h283l52 7q15 0 26 -11.5t11 -26.5t-10.5 -26t-26.5 -11h-367q-20 0 -32 11.5t-12 30.5l4 57v521l-4 58q0 19 11.5 30.5t28.5 11.5t28.5 -11.5t11.5 -30.5z" />
<glyph unicode="M" horiz-adv-x="838" d="M182 93l4 -58q0 -19 -11 -30.5t-28 -11.5t-28 11.5t-11 30.5l4 58v521l-4 58q0 19 11.5 30.5t28.5 11.5h8q29 0 42 -27l9 -22q6 -15 9 -21l185 -410q11 -23 18 -49q15 37 21 50l182 409q3 6 9 21l9 22q13 27 42 27h8q17 0 28.5 -11.5t11.5 -30.5l-4 -58v-521l4 -58 q0 -19 -11 -30.5t-28 -11.5t-28 11.5t-11 30.5l4 58l2 408q0 36 4 82l-183 -408q-21 -48 -23 -51q-11 -15 -36.5 -15t-32.5 10t-10 15.5t-7 17t-10 23.5l-185 408q5 -38 5 -82z" />
<glyph unicode="N" horiz-adv-x="742" d="M184 94l4 -58q0 -19 -11.5 -30.5t-28.5 -11.5t-28.5 11.5t-11.5 30.5l4 58v520l-4 58q0 19 11.5 30.5t34.5 11.5t40 -26l296 -454l75 -121q-4 52 -4 105l-3 402l-4 58q0 19 11.5 30.5t28.5 11.5t28.5 -11.5t11.5 -30.5l-4 -58v-526l4 -58q0 -19 -11.5 -30.5t-26.5 -11.5 t-25 6.5t-14.5 12t-14 23t-14.5 24.5l-352 543q5 -63 5 -96z" />
<glyph unicode="O" horiz-adv-x="776" d="M388 729q142 0 228.5 -104.5t86.5 -266.5t-86.5 -267t-228.5 -105t-228.5 105t-86.5 267t86.5 266.5t228.5 104.5zM388 51q108 0 175 88.5t67 218t-67 219t-175 89.5t-175 -89.5t-67 -219t67 -218t175 -88.5z" />
<glyph unicode="P" horiz-adv-x="608" d="M184 367h154q71 0 114 40.5t43 104t-42.5 101t-124.5 37.5h-144v-283zM184 94l4 -58q0 -19 -11.5 -30.5t-28.5 -11.5t-28.5 11.5t-11.5 30.5l4 58v521l-4 57q0 19 12 30.5t32 11.5h176q109 0 174 -55t65 -148t-65 -150.5t-164 -57.5h-154v-209z" />
<glyph unicode="Q" horiz-adv-x="778" d="M388 729q142 0 228.5 -104.5t86.5 -266.5q0 -81 -26.5 -158t-79.5 -130l38 -54q39 -54 60.5 -54t29.5 23t29 23t30 -11.5t9 -33.5t-25.5 -41t-60.5 -19q-68 0 -119 70l-42 58q-71 -45 -158 -45q-142 0 -228.5 105t-86.5 267t86.5 266.5t228.5 104.5zM388 51q71 0 122 33 l-47 64q-21 27 -30 34.5t-25 7.5t-26.5 -21t-28.5 -21t-27.5 10t-9.5 31t25 41t60 20t61 -17.5t53 -52.5l42 -55q73 86 73 224.5t-67 227.5t-175 89t-175 -89.5t-67 -219t67 -218t175 -88.5z" />
<glyph unicode="R" horiz-adv-x="643" d="M555 68l30 6q17 0 27.5 -11t10.5 -27.5t-16 -29t-41 -12.5q-55 0 -96 65l-164 259h-122v-224l4 -58q0 -19 -11.5 -30.5t-28.5 -11.5t-28.5 11.5t-11.5 30.5l4 58v521l-4 57q0 19 12 30.5t32 11.5h176q101 0 167.5 -53.5t66.5 -138t-49.5 -135t-129.5 -64.5l145 -233 q13 -22 27 -22zM184 383h144q73 0 117.5 36t44.5 97t-44.5 97t-117.5 36h-144v-266z" />
<glyph unicode="S" horiz-adv-x="581" d="M55 115q-11 24 -11 45.5t11 32t27 10.5q34 0 36 -43.5t48 -76.5t121.5 -33t119 40.5t43.5 93.5t-35.5 85.5t-112.5 61.5l-46 17q-80 30 -126 82t-46 127.5t58 123.5t146 48q139 0 200 -101q14 -23 14 -40t-10.5 -28t-24.5 -11q-32 0 -41 29q-25 88 -141 88 q-59 0 -94.5 -32t-35.5 -82q0 -92 125 -138l51 -19q100 -37 145.5 -87t45.5 -126.5t-63 -136.5t-161.5 -60t-158.5 37t-84 93z" />
<glyph unicode="T" horiz-adv-x="576" d="M324 94l4 -58q0 -19 -11.5 -30.5t-28.5 -11.5t-28.5 11.5t-11.5 30.5l4 58v554h-139l-52 -7q-15 0 -26 11t-11 26t10.5 25.5t26.5 10.5h454q16 0 26.5 -10.5t10.5 -25.5t-11 -26t-26 -11l-52 7h-139v-554z" />
<glyph unicode="U" horiz-adv-x="710" d="M617 678l-4 -58v-348q0 -132 -68.5 -209t-189.5 -77t-189.5 77t-68.5 209v348l-4 58q0 19 11.5 30.5t28.5 11.5t28.5 -11.5t11.5 -30.5l-4 -58v-349q0 -101 49 -161t137 -60t137 60t49 161v349l-4 58q0 19 11.5 30.5t28.5 11.5t28.5 -11.5t11.5 -30.5z" />
<glyph unicode="V" horiz-adv-x="634" d="M532 692q10 28 32 28q43 0 45 -37q0 -12 -10.5 -35.5t-13.5 -32.5l-196 -533l-9 -29q-6 -19 -7 -23q-13 -35 -52 -35h-9q-38 0 -51 35q-1 4 -7 23l-9 29l-196 533q-3 9 -11 27q-13 28 -13 42q0 15 12 26q11 10 33 10t32 -28q2 -5 6.5 -25t7.5 -29l185 -515l17 -57 q9 33 17 58l183 514q3 9 7.5 29t6.5 25z" />
<glyph unicode="W" horiz-adv-x="826" d="M231 -4h-10q-31 0 -39 35l-11 53l-128 532q-2 11 -10 33.5t-8 36t11 24t28 10.5q32 0 39 -35q1 -3 3 -23t4 -30l108 -457q9 -38 14 -84q15 57 25 84l106 304q3 7 7.5 22t6.5 20q10 24 38.5 24t38.5 -24q2 -5 6 -19.5t7 -22.5l107 -304q11 -31 24 -84q10 61 15 84l105 457 q8 44 8 54q6 34 38 34q16 0 26.5 -10.5t10.5 -22.5t-8 -37t-10 -34l-127 -532l-11 -53q-8 -35 -38 -35h-10q-29 0 -39 25q-6 15 -17 52l-103 297q-7 20 -25 81q-10 -44 -23 -81l-103 -297q-11 -37 -17 -52q-10 -25 -39 -25z" />
<glyph unicode="X" horiz-adv-x="594" d="M545 77q13 -15 18.5 -23.5t5.5 -23t-11 -25.5t-29.5 -11t-31.5 20q-25 43 -29 49l-174 251l-170 -251q-5 -8 -14.5 -25.5t-12.5 -22.5q-14 -21 -32.5 -21t-29 11t-10.5 25t6 23t18.5 23.5t17.5 22.5l187 272l-169 243q-5 8 -18 23t-18.5 23.5t-5.5 23t11 25.5t29 11 t26 -12l19 -30l16 -27l155 -225l153 225q5 8 14.5 25.5t12.5 22.5q14 21 32.5 21t29 -11t10.5 -25t-6 -23t-18.5 -23.5t-17.5 -22.5l-170 -246l188 -269q5 -8 18 -23z" />
<glyph unicode="Y" horiz-adv-x="579" d="M324 94l4 -58q0 -19 -11.5 -30.5t-28.5 -11.5t-28.5 11.5t-11.5 30.5l4 58v153l-192 366q-4 9 -15.5 27t-15.5 25t-4 20.5t10.5 24t31 10.5t31.5 -24q2 -4 8.5 -23t11.5 -28l172 -329l171 329q5 9 11.5 27.5t8.5 22.5q11 25 31.5 25t31 -10.5t10.5 -24t-4 -20.5 t-15.5 -25t-15.5 -26l-195 -369v-151z" />
<glyph unicode="Z" horiz-adv-x="562" d="M444 66l52 7q15 0 26 -11t11 -26t-10.5 -25.5t-26.5 -10.5h-431q-18 0 -29 10t-11 23t10 28l366 539q15 24 39 51h-301l-52 -7q-15 0 -26 10t-11 25t10.5 25t26.5 10h395q18 0 29 -10t11 -24.5t-8 -26.5l-359 -528l-42 -59h331z" />
<glyph unicode="[" horiz-adv-x="310" d="M226 -21l49 8q16 0 26.5 -9.5t10.5 -24.5t-10 -24t-27 -9h-153q-20 0 -31.5 11.5t-11.5 30.5l4 57v611l-4 57q0 19 11.5 30.5t31.5 11.5h153q17 0 27 -9t10 -24t-10.5 -24.5t-26.5 -9.5l-49 8h-81v-691h81z" />
<glyph unicode="\" horiz-adv-x="445" d="M508 -148q-11 -11 -30.5 -11t-30.5 22q-4 8 -9.5 25t-8.5 24l-348 719q-4 8 -12 20q-17 26 -17 44q0 14 9 23q11 11 30.5 11t30.5 -22q4 -8 9.5 -25t8.5 -24l348 -719q4 -8 12 -20q17 -26 17 -44q0 -14 -9 -23z" />
<glyph unicode="]" horiz-adv-x="310" d="M221 19l4 -57q0 -19 -11.5 -30.5t-31.5 -11.5h-153q-17 0 -27 9t-10 24t10.5 24.5t26.5 9.5l49 -8h81v691h-81l-49 -8q-16 0 -26.5 9.5t-10.5 24.5t10 24t27 9h153q20 0 31.5 -11.5t11.5 -30.5l-4 -57v-611z" />
<glyph unicode="^" horiz-adv-x="532" d="M108 353.5q-6 -13.5 -14 -23t-24 -9.5t-26 10.5t-10 24.5t14 31t19 25l145 223q18 30 21 33q12 15 32.5 15t32.5 -15q3 -3 21 -33l146 -220q8 -12 20.5 -27t12.5 -29.5t-10 -24.5t-26 -10t-24 9.5t-14 23t-10 18.5l-147 234l-149 -237q-4 -5 -10 -18.5z" />
<glyph unicode="_" horiz-adv-x="419" d="M39 -134q-33 0 -33 29.5t33 29.5h340q34 0 34 -30q0 -13 -9.5 -21t-24.5 -8h-340z" />
<glyph unicode="`" horiz-adv-x="338" d="M248.5 559q-9.5 -9 -23 -9t-20.5 5t-15.5 13.5t-15.5 14.5l-31 27l-25 19q-17 12 -27.5 21.5t-10.5 27.5t12 28.5t27 10.5t24 -8t17.5 -18t17.5 -19l41 -41q7 -7 23 -20.5t16 -28t-9.5 -23.5z" />
<glyph unicode="a" horiz-adv-x="503" d="M416 65l20 4q15 0 24.5 -10t9.5 -26.5t-15 -27.5t-40 -11q-46 0 -62 40q-51 -48 -130 -48t-127 40.5t-48 106.5t44 108.5t135 46.5t114 29v26q0 39 -26.5 64.5t-69.5 25.5q-68 0 -84 -58q-9 -27 -31 -27t-32 11t-10 26.5t12 34.5q45 70 147 70q75 0 120 -42t45 -112v-262 q0 -9 4 -9zM148 72q30 -24 91.5 -24t101.5 40v167q-31 -23 -99.5 -27.5t-96 -29t-27.5 -63.5t30 -63z" />
<glyph unicode="b" horiz-adv-x="561" d="M170 690l-4 -55v-192q47 47 120 47q96 0 153.5 -69.5t57.5 -177.5t-59 -182.5t-157 -74.5q-68 0 -115 47q-1 -17 -11.5 -28t-26.5 -11t-28 11t-12 29l8 56v545l-4 55q0 16 11 27.5t28 11.5t28 -11.5t11 -27.5zM389 377.5q-38 52.5 -109.5 52.5t-113.5 -55v-276 q37 -52 108 -52t112 57t41 139t-38 134.5z" />
<glyph unicode="c" horiz-adv-x="528" d="M452 57q-63 -71 -166.5 -71t-163 73t-59.5 179t59.5 179t165 73t163.5 -72q20 -26 20 -42t-11 -26.5t-31.5 -10.5t-31.5 26q-29 65 -105.5 65t-117.5 -56.5t-41 -135.5t41 -135q40 -55 109 -55h2q90 0 117 67q10 26 32 26q41 0 41 -35q0 -21 -23 -49z" />
<glyph unicode="d" horiz-adv-x="560" d="M464 90l8 -56q0 -18 -12 -29t-28 -11t-27 11t-11 28q-49 -47 -115 -47q-98 0 -157 74.5t-59 182.5t57.5 177.5t153.5 69.5q73 0 120 -47v192l-4 55q0 16 11 27.5t28 11.5t28 -11.5t11 -27.5l-4 -55v-545zM174 104q41 -57 111.5 -57t108.5 52v276q-42 55 -113.5 55 t-109.5 -52.5t-38 -134.5t41 -139z" />
<glyph unicode="e" horiz-adv-x="546" d="M127 419.5q64 70.5 157 70.5t150 -64t57 -151q0 -58 -53 -58h-305q6 -77 48.5 -123.5t107.5 -46.5q92 0 119 68q10 26 32 26q41 0 41 -35q0 -16 -13 -34q-62 -86 -170 -86t-171.5 70t-63.5 181.5t64 182zM389 383.5q-36 47.5 -101.5 47.5t-107 -43t-47.5 -112h292 q0 60 -36 107.5z" />
<glyph unicode="f" horiz-adv-x="356" d="M116 34l5 54v331h-6l-45 -5q-15 0 -25 10t-10 24t10 24t25 10l45 -4h6v130q0 59 31.5 90t84 31t77 -19t24.5 -37t-10.5 -28t-26.5 -10t-26 10l-13 13q-11 9 -29 9q-44 0 -44 -42v-147h59l43 4q15 0 25 -10t10 -24t-10 -24t-25 -10l-43 4h-59v-330l5 -54q0 -18 -11 -29 t-28 -11t-28 11t-11 29z" />
<glyph unicode="g" horiz-adv-x="558" d="M470 438l-8 -54v-368q0 -119 -53 -179t-149 -60t-150 65q-18 21 -18 38.5t11 28t31 10.5t33 -27q25 -54 91 -54t100 42.5t34 120.5v30q-48 -45 -113 -45q-98 0 -157 74.5t-59 182.5t57.5 177.5t153.5 69.5q72 0 118 -46q5 34 39 34q15 0 27 -11.5t12 -28.5zM174 104 q41 -57 110 -57t108 50v283q-40 50 -111.5 50t-109.5 -52.5t-38 -134.5t41 -139z" />
<glyph unicode="h" horiz-adv-x="563" d="M166 690l-4 -55v-211q58 66 140 66t128 -50.5t46 -127.5v-224l4 -55q0 -17 -11 -28t-28 -11t-28 11t-11 28l4 55v216q0 58 -31 92t-82 34q-77 0 -131 -73v-269l4 -55q0 -17 -11 -28t-28 -11t-28 11t-11 28l4 55v547l-4 55q0 16 11 27.5t28 11.5t28 -11.5t11 -27.5z" />
<glyph unicode="i" horiz-adv-x="272" d="M136 585q-20 0 -34 14.5t-14 33.5t14 33.5t34 14.5t34 -14.5t14 -33.5t-14 -33.5t-34 -14.5zM97 33l4 55v296l-4 55q0 17 11.5 28t27.5 11t27.5 -11t11.5 -28l-4 -55v-296l4 -55q0 -17 -11.5 -28t-27.5 -11t-27.5 11t-11.5 28z" />
<glyph unicode="j" horiz-adv-x="272" d="M25 -147l41 -8q19 0 26.5 14t7.5 46v479l-4 55q0 17 11 28t28 11t28 -11t11 -28l-4 -55v-498q0 -49 -31.5 -80.5t-95.5 -31.5q-25 0 -40 11t-15 28t11 28.5t26 11.5zM87 633q0 19 14.5 33t34 14t34 -14t14.5 -33t-14.5 -33t-34.5 -14t-34 14t-14 33z" />
<glyph unicode="k" horiz-adv-x="484" d="M88 33l4 55v547l-4 55q0 16 11 27.5t28 11.5t28 -11.5t11 -27.5l-4 -55v-175q0 -119 -2 -209q19 21 93 97l70 75q8 9 17.5 22t19.5 23t26.5 10t27 -11t10.5 -25t-7.5 -23.5t-20.5 -20t-24 -22.5l-104 -107l135 -177q7 -9 17 -20q25 -26 25 -41t-10.5 -26t-28 -11 t-25 10.5t-16 25t-15.5 23.5l-129 172l-59 -60v-77l4 -55q0 -17 -11 -28t-28 -11t-28 11t-11 28z" />
<glyph unicode="l" horiz-adv-x="254" d="M88 33l4 55v547l-4 55q0 16 11 27.5t28 11.5t28 -11.5t11 -27.5l-4 -55v-547l4 -55q0 -17 -11 -28t-28 -11t-28 11t-11 28z" />
<glyph unicode="m" horiz-adv-x="859" d="M698 33l4 55v216q0 58 -28.5 92t-73.5 34q-93 0 -134 -82q3 -16 3 -36v-224l4 -55q0 -17 -11.5 -28t-27.5 -11t-27.5 11t-11.5 28l4 55v216q0 32 -9 58q-25 68 -100.5 68t-123.5 -76v-266l4 -55q0 -17 -11 -28t-28 -11t-28 11t-11 28l4 55v294l-8 56q0 18 11.5 29 t28.5 11t27.5 -11t10.5 -29v-16q54 68 146.5 68t135.5 -89q54 89 155 89q75 0 122 -49.5t47 -135.5v-217l4 -55q0 -17 -11 -28t-28 -11t-28 11t-11 28z" />
<glyph unicode="n" horiz-adv-x="566" d="M405 33l4 55v216q0 58 -31 92t-82 34q-76 0 -130 -72v-270l4 -55q0 -17 -11 -28t-28 -11t-28 11t-11 28l4 55v294l-8 56q0 18 11.5 29t28.5 11t27.5 -11t10.5 -29v-13q57 65 139 65t128 -50.5t46 -127.5v-224l4 -55q0 -17 -11.5 -28t-27.5 -11t-27.5 11t-11.5 28z" />
<glyph unicode="o" horiz-adv-x="574" d="M287 47q70 0 112 56.5t42 134.5t-42 135t-112 57t-112 -57t-42 -135t42 -134.5t112 -56.5zM287 490q103 0 163.5 -73t60.5 -179t-60.5 -179t-163.5 -73t-163.5 73t-60.5 179t60.5 179t163.5 73z" />
<glyph unicode="p" horiz-adv-x="560" d="M96 382l-8 56q0 18 12 29t28 11t27 -11t11 -29q47 52 120 52q96 0 153.5 -69.5t57.5 -177.5t-59 -182.5t-157 -74.5q-68 0 -115 47v-167l4 -55q0 -17 -11 -28t-28 -11t-28 11t-11 28l4 55v516zM389 377.5q-38 52.5 -109.5 52.5t-113.5 -55v-276q37 -52 108 -52t112 57 t41 139t-38 134.5z" />
<glyph unicode="q" horiz-adv-x="560" d="M472 438l-8 -54v-530q0 -15 4 -15t10.5 4.5t19.5 4.5t23.5 -10.5t10.5 -27t-16 -28t-48 -11.5t-53 24.5t-21 68.5v169q-49 -47 -115 -47q-98 0 -157 74.5t-59 182.5t57.5 177.5t153.5 69.5q73 0 120 -52q0 18 11 29t27 11t28 -11.5t12 -28.5zM174 104q41 -57 111.5 -57 t108.5 52v276q-42 55 -113.5 55t-109.5 -52.5t-38 -134.5t41 -139z" />
<glyph unicode="r" horiz-adv-x="358" d="M166 88l4 -55q0 -17 -11 -28t-28 -11t-28 11t-11 28l4 55v294l-8 56q0 18 11 29t27.5 11t26.5 -11t10 -29v-18q58 70 120 70q22 0 35 -12t13 -29t-12.5 -29t-26.5 -12t-25 5t-16 5q-42 0 -85 -67v-263z" />
<glyph unicode="s" horiz-adv-x="433" d="M140.5 65q29.5 -19 74 -19t75 22t30.5 54.5t-24.5 51t-88.5 38.5l-21 7q-124 41 -124 143q0 51 41 89t106 38q98 0 147 -62q15 -19 15 -35.5t-11 -27t-30.5 -10.5t-30.5 24q-23 52 -87 52q-38 0 -61 -19.5t-23 -47t18 -48t71 -36.5l13 -4q85 -26 121 -59t36 -90.5 t-47 -98.5t-129 -41q-120 0 -165 89q-12 24 -12 39.5t10 27t25.5 11.5t25.5 -10.5t12 -24.5q4 -34 33.5 -53z" />
<glyph unicode="t" horiz-adv-x="359" d="M115 419l-45 -5q-15 0 -25 10t-10 24t10 24t25 10l45 -5h6v47l-5 54q0 18 11 29t28 11t28 -11t11 -29l-5 -54v-46h59l43 4q15 0 25 -10t10 -24t-10 -24t-25 -10l-43 4h-59v-314q0 -25 12 -36.5t31.5 -11.5t33.5 16.5t30.5 16.5t27 -9t10.5 -27.5t-25 -38.5t-77 -20 t-81.5 29t-29.5 83v313h-6z" />
<glyph unicode="u" horiz-adv-x="566" d="M161 439l-4 -55v-212q0 -58 31.5 -92t96.5 -34t115 59v279l-4 55q0 17 11 28t28 11t28 -11t11 -28l-4 -55v-294l8 -56q0 -18 -11.5 -29t-28.5 -11t-27.5 11t-10.5 29v8q-54 -56 -134.5 -56t-129.5 50.5t-49 127.5v220l-4 55q0 17 11.5 28t27.5 11t27.5 -11t11.5 -28z" />
<glyph unicode="v" horiz-adv-x="466" d="M240 -3h-12q-30 0 -40 32l-15 45l-121 303q-4 9 -13 26q-14 26 -14 39.5t11 24.5t32 11t31 -25q2 -5 7.5 -24t8.5 -28l100 -260q2 -5 20 -63q6 28 19 63l98 260q3 9 8 28t7 24q10 25 31 25t32 -11t11 -23t-2.5 -18t-11.5 -23t-13 -26l-121 -303l-15 -45 q-6 -17 -13.5 -24.5t-24.5 -7.5z" />
<glyph unicode="w" horiz-adv-x="695" d="M306 378q10 33 41.5 33t41.5 -33l11 -38l75 -210q11 -32 15 -46q1 8 13 47l81 265q3 10 6.5 30t4.5 24q8 28 30.5 28t33.5 -11t11 -22t-2 -17t-11 -24.5t-12 -28.5l-96 -297l-14 -51q-9 -30 -39 -30h-8q-30 0 -40 26l-89 247q-9 24 -13 43q-7 -27 -13 -43l-88 -247 q-6 -17 -14.5 -21.5t-24.5 -4.5h-9q-29 0 -37 30q-2 5 -7 23.5t-8 27.5l-96 297q-3 10 -11 29q-13 27 -13 39.5t11 23.5t33.5 11t30.5 -28q1 -3 5 -23.5t7 -30.5l83 -267q9 -29 12 -47q3 13 15 47l73 211z" />
<glyph unicode="x" horiz-adv-x="459" d="M108.5 33.5q-9.5 -17.5 -17.5 -28.5t-25.5 -11t-29 10.5t-11.5 25t6 23t20 23.5t19 21l116 152l-99 126q-5 6 -19 21q-27 27 -27 44t11.5 27.5t29 10.5t25.5 -11t17.5 -28.5t15.5 -24.5l91 -120l85 119l14 25q10 17 18 28t25.5 11t29 -10.5t11.5 -25t-6 -23t-19.5 -23.5 t-18.5 -21l-99 -131l116 -147q5 -6 19 -20q27 -27 27 -44t-11.5 -27.5t-29 -10.5t-25.5 11t-17.5 27.5t-15.5 23.5l-108 141l-102 -139q-6 -7 -15.5 -24.5z" />
<glyph unicode="y" horiz-adv-x="476" d="M78 -150l46 -11q27 0 43 40l42 114h-1q-31 0 -41 26q-3 7 -5.5 26t-7.5 32l-104 300q-4 10 -10 23l-7 14q-7 16 -7 29.5t11 24t32 10.5t29 -22q2 -6 7 -26t8 -28l100 -288q11 -34 18 -63l132 351q3 8 8 27.5t7 25.5q9 23 30 23t32 -11t11 -24.5t-4 -21.5t-8 -15t-7 -14 l-209 -541q-30 -80 -124 -80q-26 0 -42 11t-16 28t11 28.5t26 11.5z" />
<glyph unicode="z" horiz-adv-x="444" d="M324 64l49 7q16 0 26.5 -10.5t10.5 -25.5t-10.5 -25t-26.5 -10h-300q-18 0 -29 10t-11 25.5t11 28.5l246 315q20 24 32 36h-183l-49 -7q-16 0 -26.5 10t-10.5 25t10.5 25t27.5 10h277q18 0 29 -10t11 -24t-7 -25l-251 -323l-27 -32h201z" />
<glyph unicode="{" horiz-adv-x="358" d="M67 343l32 -3q32 0 51 28.5t19 65.5l-10 229q0 40 33.5 63.5t79.5 23.5q85 0 85 -40q0 -14 -10 -23t-21.5 -9t-27.5 8t-34.5 8t-30.5 -10.5t-12 -29.5l10 -225q0 -41 -21 -73.5t-57 -47.5q36 -16 57 -48t21 -73l-10 -225q0 -19 12 -29.5t30.5 -10.5t34.5 8t27.5 8 t21.5 -9t10 -23q0 -40 -85 -40q-46 0 -79.5 23.5t-33.5 63.5l10 229q0 37 -19.5 65.5t-51.5 28.5l-31 -3q-15 0 -25 10t-10 25t10 25t25 10z" />
<glyph unicode="|" horiz-adv-x="250" d="M88 -189l4 55v846l-4 55q0 17 10.5 28t26.5 11t26.5 -11t10.5 -28l-4 -55v-846l4 -55q0 -17 -10.5 -28t-26.5 -11t-26.5 11t-10.5 28z" />
<glyph unicode="}" horiz-adv-x="358" d="M204 663l-10 -229q0 -37 19 -65.5t51 -28.5l32 3q15 0 25 -10t10 -25t-10 -25t-25 -10l-31 3q-32 0 -51.5 -28.5t-19.5 -65.5l10 -229q0 -40 -33.5 -63.5t-79.5 -23.5q-85 0 -85 40q0 14 10 23t21.5 9t27.5 -8t34.5 -8t30.5 10.5t12 29.5l-10 225q0 41 21 73t57 48 q-36 15 -57 47.5t-21 73.5l10 225q0 19 -12 29.5t-30.5 10.5t-34.5 -8t-27.5 -8t-21.5 9t-10 23q0 40 85 40q46 0 79.5 -23.5t33.5 -63.5z" />
<glyph unicode="~" horiz-adv-x="447" d="M200 332q-43 22 -59 22t-26 -26t-32.5 -26t-33.5 10t-11 30t14 39q28 39 80.5 39t99.5 -26l19 -11q34 -19 52.5 -19t26.5 23q12 29 42 29q15 0 26 -10t11 -30t-14 -39q-28 -39 -80.5 -39t-95.5 24z" />
<glyph unicode="&#xa1;" horiz-adv-x="222" d="M117 542q-19 0 -33.5 14t-14.5 34t14.5 34t33.5 14t33.5 -14t14.5 -34t-14.5 -34t-33.5 -14zM156 1l4 -54q0 -19 -11.5 -32t-31.5 -13t-31.5 13t-11.5 32l4 54l7 391l-3 50q0 16 10 26t25 10t25 -10t10 -26l-3 -50z" />
<glyph unicode="&#xa2;" horiz-adv-x="528" d="M312 -12l5 -47q0 -17 -11.5 -28t-27.5 -11t-27.5 11t-11.5 28l5 47q-94 14 -147.5 89.5t-53.5 176t54.5 175.5t146.5 88v12l-5 55q0 16 11.5 27.5t27.5 11.5t27.5 -11.5t11.5 -27.5l-5 -55v-11q101 -10 149 -78q15 -20 15 -35.5t-10.5 -26.5t-31.5 -11t-33 29 q-21 52 -91 62v-410q71 9 94 64q11 29 32.5 29t32 -10.5t10.5 -26.5t-14 -36q-51 -69 -153 -80zM149 384q-36 -57 -36 -129.5t35 -130t97 -72.5v404q-60 -15 -96 -72z" />
<glyph unicode="&#xa3;" horiz-adv-x="518" d="M132 304l-49 -4q-16 0 -25.5 9.5t-9.5 24t10 24.5t25 10l49 -4h17q-5 22 -15 55q-24 74 -24 108q0 71 48.5 118.5t128.5 47.5q105 0 158 -82q10 -16 10 -30.5t-9 -24.5t-28.5 -10t-30.5 27q-10 27 -36.5 44.5t-72 17.5t-74.5 -28.5t-29 -80.5q0 -31 15.5 -85t20.5 -77 h133l48 4q16 0 25.5 -10t9.5 -24.5t-9.5 -24t-25.5 -9.5l-48 4h-125q1 -6 1 -17q0 -104 -62 -183q-10 -13 -42 -41h296l47 7q15 0 25.5 -10t10.5 -25t-10 -25t-26 -10h-386q-36 0 -36 41q0 22 29 54l15 15q39 37 48 56.5t16 37.5q13 33 13 64t-1 36h-25z" />
<glyph unicode="&#xa4;" horiz-adv-x="578" d="M289 601q71 0 127 -36l17 29q10 17 18 28t25.5 11t29 -10.5t11.5 -25t-6 -23t-20 -23.5t-19 -21l-7 -8q55 -63 55 -154t-59 -155l11 -13q5 -6 19 -21q26 -28 26 -44.5t-11.5 -27t-29 -10.5t-25.5 11t-18 28.5t-14 23.5l-8 11q-53 -32 -122 -32t-122 32l-8 -11 q-4 -6 -14 -23.5t-18 -28.5t-25.5 -11t-29 10.5t-11.5 25t6 23t20 23.5t19 21l10 13q-58 64 -58 154.5t54 154.5q-8 11 -23.5 27.5t-21.5 25t-6 23t11.5 25t29 10.5t25.5 -11t18 -28l17 -29q56 36 127 36zM289 201q72 0 118.5 48t46.5 121t-46.5 121.5t-118.5 48.5 t-118.5 -48.5t-46.5 -121.5t46.5 -121t118.5 -48z" />
<glyph unicode="&#xa5;" horiz-adv-x="550" d="M235 35l3 56v149l-1 2h-71l-48 -4q-16 0 -25.5 10t-9.5 25t9.5 24.5t25.5 9.5l48 -4h38l-35 65h-51l-49 -4q-16 0 -25.5 9.5t-9.5 24t9.5 24t25.5 9.5l49 -4h20l-82 154q-4 9 -14 26l-14 22q-4 9 -4 22t9.5 23t29 10t30.5 -24q1 -2 8 -21t12 -27l162 -310l161 310 q5 8 12 27t8 21q11 24 30.5 24t29 -10t9.5 -23t-3.5 -20t-14 -24t-14.5 -26l-83 -154h21l49 4q16 0 25.5 -9.5t9.5 -24.5t-9.5 -24t-25.5 -9l-49 4h-53l-35 -65h41l48 4q16 0 25.5 -9.5t9.5 -24.5t-10 -25t-25 -10l-48 4h-73l-2 -4v-147l4 -56q0 -18 -11.5 -29.5t-28 -11.5 t-27.5 11t-11 30z" />
<glyph unicode="&#xa6;" horiz-adv-x="250" d="M88 -190l4 55v296l-4 55q0 17 10.5 28t26.5 11t26.5 -11t10.5 -28l-4 -55v-296l4 -55q0 -17 -10.5 -28t-26.5 -11t-26.5 11t-10.5 28zM88 361l4 55v296l-4 55q0 17 10.5 28t26.5 11t26.5 -11t10.5 -28l-4 -55v-296l4 -55q0 -17 -10.5 -28t-26.5 -11t-26.5 11t-10.5 28z " />
<glyph unicode="&#xa7;" horiz-adv-x="443" d="M342 20.5q-50 -41.5 -119.5 -41.5t-117.5 28t-67 80q-4 9 -4 22.5t10.5 25t26 11.5t25.5 -10.5t12 -24.5q4 -33 35.5 -52t75 -19t75 22.5t31.5 55.5t-28.5 55.5t-90.5 42.5l-13 4q-70 22 -111.5 64t-41.5 95q0 75 72 113q-58 42 -58 101.5t46.5 98.5t108.5 39t102 -21.5 t58 -54.5q6 -11 6 -24.5t-11 -24t-30.5 -10.5t-30.5 24q-23 52 -87 52q-42 0 -68.5 -21t-26.5 -51t22 -49.5t78 -36.5l13 -4q82 -26 122 -65.5t40 -106.5t-70 -104q66 -44 66 -108t-50 -105.5zM329 348q0 63 -117 100l-13 4q-11 2 -24 8q-31 -6 -49.5 -29.5t-18.5 -49.5 q0 -66 108 -99l46 -16q31 11 49.5 33.5t18.5 48.5z" />
<glyph unicode="&#xa8;" horiz-adv-x="417" d="M128 585q-20 0 -34 14.5t-14 33.5t14 33.5t34 14.5t34 -14.5t14 -33.5t-14 -33.5t-34 -14.5zM289 585q-19 0 -33.5 14.5t-14.5 33.5t14.5 33.5t33.5 14.5t33.5 -14.5t14.5 -33.5t-14.5 -33.5t-33.5 -14.5z" />
<glyph unicode="&#xa9;" horiz-adv-x="820" d="M182.5 590q-89.5 -96 -89.5 -236.5t89.5 -235t227 -94.5t227.5 94.5t90 235t-90 236.5t-227.5 96t-227 -96zM152 89.5q-104 108.5 -104 264t104 264.5t257 109t258 -109t105 -264.5t-105 -264t-258 -108.5t-257 108.5zM330 244.5q31 -42.5 95 -42.5t83 52q8 23 27.5 23 t28 -9t8.5 -20t-7 -24q-18 -35 -59 -56.5t-88 -21.5q-83 0 -134 60t-51 145.5t50.5 146t134.5 60.5q48 0 88 -21.5t58 -59.5q4 -10 4 -19.5t-9 -19.5t-28 -10t-28 23q-20 51 -81 51t-92 -43t-31 -107.5t31 -107z" />
<glyph unicode="&#xaa;" horiz-adv-x="346" d="M288 454l11 2q12 0 19.5 -8t7.5 -21t-12 -22.5t-37 -9.5t-41 24q-32 -29 -83.5 -29t-82.5 27t-31 70t30 70.5t85.5 30.5t70.5 16v16q0 24 -15.5 38.5t-46.5 14.5t-39 -26.5t-27 -26.5q-34 0 -34 29q0 14 11 28q29 43 89 43t91 -29t31 -79v-151q0 -7 3 -7zM115 453 q17 -14 52 -14t58 23v95q-18 -12 -56.5 -15t-54.5 -17t-16 -36t17 -36z" />
<glyph unicode="&#xab;" horiz-adv-x="525" d="M208.5 443q7.5 9 15.5 15.5t22 6.5t24 -10t10 -25.5t-9.5 -23.5t-20.5 -14.5t-18 -12.5l-127 -108l126 -106q7 -6 18.5 -13t21 -15t9.5 -23.5t-10 -25.5t-24 -10t-22 6.5t-15.5 15.5t-13.5 14l-111 100l-15 11q-31 23 -31 43q0 24 30 44q11 8 16 13l111 104q6 5 13.5 14z M388.5 439q7.5 9 15.5 15.5t22 6.5t24 -10t10 -25.5t-9.5 -23.5t-20.5 -14.5t-18 -12.5l-127 -104l126 -102q7 -6 18.5 -13t21 -15t9.5 -23.5t-10 -25.5t-24 -10t-22 6.5t-15.5 15.5t-13.5 14l-111 96l-15 11q-31 23 -31 42.5t9.5 28t20.5 16.5t16 13l111 100q6 5 13.5 14z " />
<glyph unicode="&#xac;" horiz-adv-x="527" d="M364 209l4 58v74h-239l-52 -7q-15 0 -26 11t-11 26t10.5 25.5t26.5 10.5h323q20 0 32 -11.5t12 -30.5l-4 -57v-41l4 -58q0 -19 -11.5 -30.5t-28.5 -11.5t-28.5 11.5t-11.5 30.5z" />
<glyph unicode="&#xad;" horiz-adv-x="385" d="M145 236l-49 -4q-16 0 -26.5 11t-10.5 26t10.5 26t26.5 11l49 -4h95l49 4q16 0 26.5 -11t10.5 -26t-10.5 -26t-26.5 -11l-49 4h-95z" />
<glyph unicode="&#xae;" horiz-adv-x="820" d="M152 89.5q-104 108.5 -104 264t104 264.5t257 109t258 -109t105 -264.5t-105 -264t-258 -108.5t-257 108.5zM182.5 590q-89.5 -96 -89.5 -236.5t89.5 -235t227 -94.5t227.5 94.5t90 235t-90 236.5t-227.5 96t-227 -96zM524 231l15 3q12 0 20.5 -8.5t8.5 -21t-11.5 -22.5 t-32.5 -10q-43 0 -65 46l-54 115h-60v-96l3 -33q0 -12 -9.5 -22.5t-25 -10.5t-25 10.5t-9.5 22.5l3 33v257l-3 29q0 12 11.5 20.5t24.5 8.5h93q56 0 93.5 -30t37.5 -72q0 -82 -77 -108l49 -103q3 -8 13 -8zM345 385h62q35 0 53.5 15.5t18.5 42t-18.5 43t-52.5 16.5h-63v-117 z" />
<glyph unicode="&#xaf;" horiz-adv-x="428" d="M159 606l-45 -4q-15 0 -24.5 10t-9.5 24t9.5 23.5t24.5 9.5l45 -3h110l45 3q15 0 24.5 -9.5t9.5 -23.5t-9.5 -24t-24.5 -10l-45 4h-110z" />
<glyph unicode="&#xb0;" horiz-adv-x="307" d="M38 604q0 48 33.5 82t81.5 34t82 -34t34 -82t-34 -81.5t-82 -33.5t-81.5 33.5t-33.5 81.5zM85 604q0 -30 19.5 -50.5t48.5 -20.5t49 21t20 50.5t-20 50.5t-49 21t-48.5 -21t-19.5 -51z" />
<glyph unicode="&#xb1;" horiz-adv-x="486" d="M278 219l4 -54q0 -18 -11 -29t-28 -11t-28 11t-11 29l4 54v52h-51l-54 -5q-18 0 -29 11t-11 28t11 28t29 11l54 -5h51v57l-4 54q0 18 11 29t28 11t28 -11t11 -29l-4 -54v-57h51l54 5q18 0 29 -11t11 -28t-11 -28t-29 -11l-54 5h-51v-52zM157 0l-54 -5q-18 0 -29 11 t-11 28t11 28t29 11l54 -5h172l54 5q18 0 29 -11t11 -28t-11 -28t-29 -11l-54 5h-172z" />
<glyph unicode="&#xb2;" horiz-adv-x="360" d="M269 338l33 5q13 0 21.5 -8.5t8.5 -21t-8.5 -21t-21.5 -8.5h-228q-16 0 -27.5 10.5t-11.5 28.5q0 64 29 108.5t92 79.5l48 26q56 30 56 73q0 27 -21.5 44.5t-55.5 17.5q-70 0 -78 -61q-4 -28 -31 -28q-12 0 -20.5 8t-8.5 24t9 34q15 32 49.5 52t88.5 20t90.5 -33 t36.5 -79q0 -71 -91 -122l-53 -28q-43 -24 -60.5 -52.5t-19.5 -68.5h174z" />
<glyph unicode="&#xb3;" horiz-adv-x="363" d="M56 684q0 28 30 28h201q30 0 30 -27q0 -18 -18 -36l-75 -75q-2 -3 -20 -18q56 -2 92.5 -37t36.5 -94.5t-45 -104.5t-124.5 -45t-124.5 64q-14 19 -14 33q0 31 29 31q22 0 30 -25q17 -52 89 -52q45 0 74 30t29 70.5t-26 64.5t-71 24l-28 -2q-10 0 -16.5 6.5t-6.5 16.5 t4.5 15t17.5 15t17 14l59 61l21 20h-127l-34 -4q-12 0 -21 7.5t-9 19.5z" />
<glyph unicode="&#xb4;" horiz-adv-x="338" d="M148.5 571.5q-8.5 -8.5 -15.5 -13.5t-20.5 -5t-23 9t-9.5 23.5t16 28t23 20.5l41 41q9 9 17.5 19t17.5 18t24 8t27 -10.5t12 -28.5t-10.5 -27.5t-27.5 -21.5l-25 -19l-31 -27q-7 -6 -15.5 -14.5z" />
<glyph unicode="&#xb5;" horiz-adv-x="561" d="M157 -132l8 -56q0 -18 -11.5 -29t-28.5 -11t-27.5 11t-10.5 29v572l-4 55q0 17 11.5 28t27.5 11t27.5 -11t11.5 -28l-4 -55v-219q0 -46 35.5 -79.5t80.5 -33.5q82 0 127 69v263l-4 55q0 17 11 28t28 11t28 -11t11 -28l-4 -55v-294l8 -56q0 -18 -11.5 -29t-28.5 -11 t-27.5 11t-10.5 29v10q-53 -58 -125.5 -58t-117.5 47v-165z" />
<glyph unicode="&#xb6;" horiz-adv-x="668" d="M243 372h98v278h-98q-67 0 -103 -39.5t-36 -99.5t36 -99.5t103 -39.5zM456 36l4 58v556h-49v-556l4 -58q0 -19 -11 -30.5t-28 -11.5t-28 11.5t-11 30.5l4 58v214h-90q-100 0 -159 59q-58 57 -58 138v6v6q0 81 58 138q59 59 159 59h348q16 0 26.5 -10t10.5 -25t-11 -25.5 t-26 -10.5l-53 7h-16v-556l4 -58q0 -19 -11 -30.5t-28 -11.5t-28 11.5t-11 30.5z" />
<glyph unicode="&#xb7;" horiz-adv-x="196" d="M98 221q-20 0 -34 14.5t-14 33.5t14 33.5t34 14.5t34 -14.5t14 -33.5t-14 -33.5t-34 -14.5z" />
<glyph unicode="&#xb8;" horiz-adv-x="400" d="M203 -98l-42 -7q-13 0 -21 8.5t-8 24t19 24.5t26 28.5t10 51.5l54 -17q0 -42 -22 -67q15 -1 38 -10t43 -32t20 -62t-35 -68.5t-92 -29.5t-95 35q-18 17 -18 31t9 23.5t26 9.5t30.5 -22t47 -22t51 14.5t17.5 36t-17.5 36t-40.5 14.5z" />
<glyph unicode="&#xb9;" horiz-adv-x="247" d="M176 351l2 -38q0 -14 -9 -23.5t-23 -9.5t-23 9.5t-9 23.5l2 38v253q0 29 1 41q-3 -5 -12 -11q-23 -20 -55 -20t-32 29q0 11 8 18.5t19 7.5l21 -3q6 0 16 9l30 29q16 16 32 16q34 0 34 -32l-2 -36v-301z" />
<glyph unicode="&#xba;" horiz-adv-x="385" d="M133 474.5q24 -32.5 64.5 -32.5t65 33t24.5 80t-24.5 80.5t-65 33.5t-64.5 -32.5t-24 -81t24 -81zM89 672q41 48 108.5 48t108.5 -47t41 -117t-40.5 -118t-108.5 -48t-109 48t-41 117t41 117z" />
<glyph unicode="&#xbb;" horiz-adv-x="525" d="M315.5 95q-7.5 -9 -15.5 -15.5t-22 -6.5t-24 10t-10 25.5t9.5 23.5t20.5 14.5t18 12.5l127 107l-126 107q-7 6 -18.5 13t-21 15t-9.5 23.5t10 25.5t24 10t22 -6.5t15.5 -15.5t13.5 -14l111 -100l15 -11q31 -23 31 -43q0 -24 -30 -44q-11 -8 -16 -13l-111 -104 q-6 -5 -13.5 -14zM135.5 99q-7.5 -9 -15.5 -15.5t-22 -6.5t-24 10t-10 25.5t9.5 23.5t20.5 14.5t18 12.5l126 103l-125 103q-7 6 -18.5 13t-21 15t-9.5 23.5t10 25.5t24 10t22 -6.5t15.5 -15.5t13.5 -14l111 -96l15 -11q31 -23 31 -42.5t-9.5 -28t-20.5 -16.5t-16 -13 l-111 -100q-6 -5 -13.5 -14z" />
<glyph unicode="&#xbc;" horiz-adv-x="900" d="M254 351l2 -38q0 -14 -9 -23.5t-23 -9.5t-23 9.5t-9 23.5l2 38v253q0 29 1 41q-3 -5 -12 -11q-23 -20 -55 -20t-32 29q0 11 8 18.5t19 7.5l21 -3q6 0 16 9l30 29q16 16 32 16q34 0 34 -32l-2 -36v-301zM735 67l3 -38q0 -14 -9 -23.5t-22.5 -9.5t-22.5 9.5t-9 23.5l3 38 v53h-176q-12 0 -20 8t-8 21v18q0 19 11.5 32t13.5 16l130 173q21 34 35 38q6 2 14 2h32q27 0 27 -32l-1 -36l-1 -188h6l33 4q12 0 20.5 -8t8.5 -19.5t-8.5 -20t-21.5 -8.5h-38v-53zM525 686.5q5 16.5 13 31.5t26.5 15t28.5 -11q9 -9 9 -22q0 -17 -16 -41q-8 -11 -12 -19 l-281 -578q-2 -5 -7 -22q-14 -46 -42 -46q-16 0 -26 10q-9 10 -9 23q0 17 17 41q7 11 11 19l281 578q2 5 7 21.5zM678 172v197l-149 -197h149z" />
<glyph unicode="&#xbd;" horiz-adv-x="900" d="M739 54l33 5q13 0 21.5 -8.5t8.5 -21t-8.5 -21t-21.5 -8.5h-228q-16 0 -27.5 10.5t-11.5 28.5q0 64 29 108.5t92 79.5l48 26q56 30 56 73q0 27 -21.5 44.5t-55.5 17.5q-70 0 -78 -61q-4 -28 -31 -28q-12 0 -20.5 8t-8.5 24t9 34q15 32 49.5 52t88.5 20t90.5 -33t36.5 -79 q0 -71 -91 -122l-53 -28q-43 -24 -60.5 -52.5t-19.5 -68.5h174zM526 686.5q5 16.5 13 31.5t26.5 15t28.5 -11q9 -9 9 -22q0 -17 -17 -41q-7 -11 -11 -19l-281 -578q-2 -5 -7 -22q-14 -46 -42 -46q-16 0 -26 10q-9 10 -9 23q0 17 16 41q8 11 12 19l281 578q2 5 7 21.5z M255 351l2 -38q0 -14 -9 -23.5t-23 -9.5t-23 9.5t-9 23.5l2 38v253q0 29 1 41q-3 -5 -12 -11q-23 -20 -55 -20t-32 29q0 11 8 18.5t19 7.5l21 -3q5 0 16 9l30 29q16 16 33 16q33 0 33 -32l-2 -36v-301z" />
<glyph unicode="&#xbe;" horiz-adv-x="900" d="M71 684q0 28 30 28h201q30 0 30 -27q0 -18 -18 -36l-75 -75q-2 -3 -20 -18q56 -2 92.5 -37t36.5 -94.5t-45 -104.5t-124.5 -45t-124.5 64q-14 19 -14 33q0 31 29 31q22 0 30 -25q17 -52 89 -52q45 0 74 30t29 70.5t-26 64.5t-71 24l-28 -2q-10 0 -16.5 6.5t-6.5 16.5 t4.5 15t17.5 15t17 14l59 61l21 20h-127l-34 -4q-12 0 -21 7.5t-9 19.5zM792 67l3 -38q0 -14 -9 -23.5t-22.5 -9.5t-22.5 9.5t-9 23.5l3 38v53h-176q-12 0 -20 8t-8 21v18q0 19 11.5 32t13.5 16l130 173q21 34 36 38q5 2 13 2h32q27 0 27 -32l-1 -36l-1 -188h6l33 4 q12 0 20.5 -8t8.5 -19.5t-8.5 -20t-21.5 -8.5h-38v-53zM582 686.5q5 16.5 13 31.5t26.5 15t28.5 -11q9 -9 9 -22q0 -17 -17 -41q-7 -11 -11 -19l-281 -578q-2 -5 -7 -22q-14 -46 -42 -46q-16 0 -26 10q-9 10 -9 23q0 17 16 41q8 11 12 19l281 578q2 5 7 21.5zM735 172v197 l-149 -197h149z" />
<glyph unicode="&#xbf;" horiz-adv-x="496" d="M249 542q-19 0 -33.5 14t-14.5 34t14.5 34t33.5 14t33.5 -14t14.5 -34t-14.5 -34t-33.5 -14zM375 71l-7 40q0 14 9.5 24t23.5 10q46 0 46 -66t-58.5 -121t-154 -55t-154 55t-58.5 139t99 156q46 34 67 54q36 34 36 82l-10 37q0 16 11 27.5t29 11.5t30 -17t12 -60 q0 -96 -130 -183q-74 -49 -74 -118q0 -49 38 -84.5t105 -35.5t103.5 32.5t36.5 71.5z" />
<glyph unicode="&#xc0;" d="M102 22q-10 -28 -32 -28q-43 0 -45 37q0 12 10.5 35.5t13.5 32.5l194 535l9 29q6 19 7 23q12 33 52 33h9q39 0 51 -33q1 -4 7 -23l203 -564q3 -9 11 -27q13 -28 13 -42q0 -15 -12 -26q-11 -10 -33 -10t-32 28q-2 5 -6.5 25t-7.5 29l-36 102h-327l-35 -102q-3 -9 -7.5 -29 t-6.5 -25zM295 590l-122 -349h283l-143 410q-6 -24 -18 -61zM338.5 805q-9.5 -9 -23 -9t-20.5 5t-15.5 13.5t-15.5 14.5l-44 33q-16 12 -26.5 21.5t-10.5 27.5t12 28.5t27.5 10.5t24 -8t17 -19t17.5 -20l28 -26q7 -7 23 -20.5t16 -28t-9.5 -23.5z" />
<glyph unicode="&#xc1;" d="M102 22q-10 -28 -32 -28q-43 0 -45 37q0 12 10.5 35.5t13.5 32.5l194 535l9 29q6 19 7 23q12 33 52 33h9q39 0 51 -33q1 -4 7 -23l203 -564q3 -9 11 -27q13 -28 13 -42q0 -15 -12 -26q-11 -10 -33 -10t-32 28q-2 5 -6.5 25t-7.5 29l-36 102h-327l-35 -102q-3 -9 -7.5 -29 t-6.5 -25zM295 590l-122 -349h283l-143 410q-6 -24 -18 -61zM347.5 814.5q-8.5 -8.5 -15.5 -13.5t-20.5 -5t-23 9t-9.5 23.5t16 28t23 20.5l28 26q8 8 16.5 19t18 19.5t24.5 8.5t27 -10.5t12 -28.5t-10.5 -27.5t-27.5 -21.5l-43 -33q-7 -6 -15.5 -14.5z" />
<glyph unicode="&#xc2;" d="M102 22q-10 -28 -32 -28q-43 0 -45 37q0 12 10.5 35.5t13.5 32.5l194 535l9 29q6 19 7 23q12 33 52 33h9q39 0 51 -33q1 -4 7 -23l203 -564q3 -9 11 -27q13 -28 13 -42q0 -15 -12 -26q-11 -10 -33 -10t-32 28q-2 5 -6.5 25t-7.5 29l-36 102h-327l-35 -102q-3 -9 -7.5 -29 t-6.5 -25zM295 590l-122 -349h283l-143 410q-6 -24 -18 -61zM315 954q19 0 28.5 -12t24.5 -34l23 -28q5 -6 15 -16q21 -21 21 -36t-10 -24.5t-25 -9.5t-22.5 8.5t-14.5 20.5t-12 18l-28 38l-29 -38q-4 -5 -11 -17.5t-14.5 -21t-22.5 -8.5t-25 9.5t-10 23t6.5 21.5t15.5 17 t14 15l22 28q11 16 23 31t31 15z" />
<glyph unicode="&#xc3;" d="M236 865l1 -14q0 -16 -10 -26.5t-26 -10.5t-26.5 11t-10.5 29q0 37 32 58q21 15 55 15t78 -28t55.5 -28t11.5 6l-2 14q0 16 10 26.5t26 10.5t26.5 -11t10.5 -29q0 -37 -32 -58q-21 -15 -55 -15t-78 28t-55 28t-11 -6zM102 22q-10 -28 -32 -28q-43 0 -45 37 q0 12 10.5 35.5t13.5 32.5l194 535l9 29q6 19 7 23q12 33 52 33h9q39 0 51 -33q1 -4 7 -23l203 -564q3 -9 11 -27q13 -28 13 -42q0 -15 -12 -26q-11 -10 -33 -10t-32 28q-2 5 -6.5 25t-7.5 29l-36 102h-327l-35 -102q-3 -9 -7.5 -29t-6.5 -25zM295 590l-122 -349h283 l-143 410q-6 -24 -18 -61z" />
<glyph unicode="&#xc4;" d="M235 828q-19 0 -33.5 14t-14.5 34t14.5 34t33.5 14t33.5 -14t14.5 -34t-14.5 -34t-33.5 -14zM102 22q-10 -28 -32 -28q-43 0 -45 37q0 12 10.5 35.5t13.5 32.5l194 535l9 29q6 19 7 23q12 33 52 33h9q39 0 51 -33q1 -4 7 -23l203 -564q3 -9 11 -27q13 -28 13 -42 q0 -15 -12 -26q-11 -10 -33 -10t-32 28q-2 5 -6.5 25t-7.5 29l-36 102h-327l-35 -102q-3 -9 -7.5 -29t-6.5 -25zM295 590l-122 -349h283l-143 410q-6 -24 -18 -61zM396 828q-20 0 -34 14t-14 34t14 34t34 14t34 -14t14 -34t-14 -34t-34 -14z" />
<glyph unicode="&#xc5;" d="M260 684q-61 33 -61 102q0 48 33.5 82t81.5 34t82 -34t34 -82q0 -68 -61 -102l212 -585q3 -9 11 -27q13 -28 13 -42q0 -15 -12 -26q-11 -10 -33 -10t-32 28q-2 5 -6.5 25t-7.5 29l-36 102h-327l-35 -102q-3 -9 -7.5 -29t-6.5 -25q-10 -28 -32 -28q-43 0 -45 37 q0 12 10.5 35.5t13.5 32.5l194 535zM295 590l-122 -349h283l-143 410q-6 -24 -18 -61zM268.5 834q-18.5 -20 -18.5 -47.5t17 -47.5t45.5 -20t47.5 19.5t19 47.5t-19 48t-46 20t-45.5 -20z" />
<glyph unicode="&#xc6;" horiz-adv-x="905" d="M445 42l4 57v79h-271l-70 -121q-4 -6 -12 -23.5t-16 -28.5t-27 -11t-29 12t-10 25.5t9 25.5q10 12 28 42l318 539q23 44 30 55q12 21 73 21h338q16 0 26.5 -10.5t10.5 -25.5t-11 -26t-26 -11l-52 7h-239v-232h170l49 3q16 0 26.5 -10.5t10.5 -25.5t-10.5 -25.5 t-26.5 -10.5l-49 3h-170v-284h264l52 7q15 0 26 -11t11 -26t-10.5 -25.5t-26.5 -10.5h-346q-20 0 -32 11.5t-12 30.5zM449 241v414q-29 -60 -44 -86l-191 -328h235z" />
<glyph unicode="&#xc7;" horiz-adv-x="716" d="M374 -98l-42 -7q-13 0 -21 8.5t-8 24t20 25.5t28 35q-127 12 -202.5 114.5t-75.5 260.5t84.5 262t225.5 104q69 0 129.5 -29.5t97.5 -84.5q22 -32 22 -51t-10.5 -30.5t-33 -11.5t-32.5 30q-20 54 -66 83.5t-107 29.5q-107 0 -172 -89t-65 -219t65 -217.5t172 -87.5 q74 0 123 36t67 97q9 32 32 32t33.5 -12t10.5 -26.5t-15 -44.5q-33 -63 -91 -101.5t-134 -45.5q-5 -24 -19 -39q15 -1 38 -10t43 -32t20 -62t-35 -68.5t-92 -29.5t-95 35q-18 17 -18 31t9 23.5t26 9.5t30.5 -22t47 -22t51 14.5t17.5 36t-17.5 36t-40.5 14.5z" />
<glyph unicode="&#xc8;" horiz-adv-x="570" d="M475 641l-52 7h-239v-232h170l49 4q16 0 26.5 -11t10.5 -26t-10.5 -26t-26.5 -11l-49 4h-170v-284h264l52 7q15 0 26 -11t11 -26t-10.5 -25.5t-26.5 -10.5h-348q-20 0 -32 11.5t-12 30.5l4 57v516l-4 57q0 19 12 30.5t32 11.5h323q16 0 26.5 -10.5t10.5 -25.5t-11 -26 t-26 -11zM345.5 805q-9.5 -9 -23 -9t-20.5 5t-15.5 13.5t-15.5 14.5l-43 33q-17 12 -27.5 21.5t-10.5 27.5t12 28.5t27 10.5t24 -8t17.5 -19t17.5 -20l28 -26q7 -7 23 -20.5t16 -28t-9.5 -23.5z" />
<glyph unicode="&#xc9;" horiz-adv-x="570" d="M475 641l-52 7h-239v-232h170l49 4q16 0 26.5 -11t10.5 -26t-10.5 -26t-26.5 -11l-49 4h-170v-284h264l52 7q15 0 26 -11t11 -26t-10.5 -25.5t-26.5 -10.5h-348q-20 0 -32 11.5t-12 30.5l4 57v516l-4 57q0 19 12 30.5t32 11.5h323q16 0 26.5 -10.5t10.5 -25.5t-11 -26 t-26 -11zM354.5 814.5q-8.5 -8.5 -15.5 -13.5t-20.5 -5t-23 9t-9.5 23.5t16 28t23 20.5l28 26q8 8 16.5 19t17.5 19.5t24.5 8.5t27.5 -10.5t12 -28.5t-10.5 -27.5t-26.5 -21.5l-44 -33q-7 -6 -15.5 -14.5z" />
<glyph unicode="&#xca;" horiz-adv-x="570" d="M475 641l-52 7h-239v-232h170l49 4q16 0 26.5 -11t10.5 -26t-10.5 -26t-26.5 -11l-49 4h-170v-284h264l52 7q15 0 26 -11t11 -26t-10.5 -25.5t-26.5 -10.5h-348q-20 0 -32 11.5t-12 30.5l4 57v516l-4 57q0 19 12 30.5t32 11.5h323q16 0 26.5 -10.5t10.5 -25.5t-11 -26 t-26 -11zM322 954q20 0 29 -12t24 -34l23 -28l14 -16q22 -21 22 -36t-10 -24.5t-25 -9.5t-22.5 8.5t-14.5 20.5t-12 18l-28 38l-29 -38q-4 -5 -11 -17.5t-14.5 -21t-22.5 -8.5t-25 9.5t-10 23t6.5 21.5t15.5 17t14 15l22 28q11 16 22.5 31t31.5 15z" />
<glyph unicode="&#xcb;" horiz-adv-x="570" d="M403 828q-19 0 -33.5 14t-14.5 34t14.5 34t33.5 14t33.5 -14t14.5 -34t-14.5 -34t-33.5 -14zM475 641l-52 7h-239v-232h170l49 4q16 0 26.5 -11t10.5 -26t-10.5 -26t-26.5 -11l-49 4h-170v-284h264l52 7q15 0 26 -11t11 -26t-10.5 -25.5t-26.5 -10.5h-348q-20 0 -32 11.5 t-12 30.5l4 57v516l-4 57q0 19 12 30.5t32 11.5h323q16 0 26.5 -10.5t10.5 -25.5t-11 -26t-26 -11zM242 828q-20 0 -34 14t-14 34t14 34t34 14t34 -14t14 -34t-14 -34t-34 -14z" />
<glyph unicode="&#xcc;" horiz-adv-x="314" d="M117 36l4 58v526l-4 58q0 19 11.5 30.5t28.5 11.5t28.5 -11.5t11.5 -30.5l-4 -58v-526l4 -58q0 -19 -11.5 -30.5t-28.5 -11.5t-28.5 11.5t-11.5 30.5zM180.5 805q-9.5 -9 -23 -9t-20.5 5t-15.5 13.5t-15.5 14.5l-44 33q-16 12 -26.5 21.5t-10.5 27.5t12 28.5t27.5 10.5 t24 -8t17 -19t17.5 -20l28 -26q7 -7 23 -20.5t16 -28t-9.5 -23.5z" />
<glyph unicode="&#xcd;" horiz-adv-x="314" d="M117 36l4 58v526l-4 58q0 19 11.5 30.5t28.5 11.5t28.5 -11.5t11.5 -30.5l-4 -58v-526l4 -58q0 -19 -11.5 -30.5t-28.5 -11.5t-28.5 11.5t-11.5 30.5zM189.5 814.5q-8.5 -8.5 -15.5 -13.5t-20.5 -5t-23 9t-9.5 23.5t16 28t23 20.5l28 26q8 8 16.5 19t18 19.5t24.5 8.5 t27 -10.5t12 -28.5t-10.5 -27.5t-27.5 -21.5l-43 -33q-7 -6 -15.5 -14.5z" />
<glyph unicode="&#xce;" horiz-adv-x="314" d="M117 36l4 58v526l-4 58q0 19 11.5 30.5t28.5 11.5t28.5 -11.5t11.5 -30.5l-4 -58v-526l4 -58q0 -19 -11.5 -30.5t-28.5 -11.5t-28.5 11.5t-11.5 30.5zM157 954q19 0 28.5 -12t24.5 -34l23 -28q5 -6 15 -16q21 -21 21 -36t-10 -24.5t-25 -9.5t-22.5 8.5t-14.5 20.5t-12 18 l-28 38l-29 -38q-4 -5 -11 -17.5t-14.5 -21t-22.5 -8.5t-25 9.5t-10 23t6.5 21.5t15.5 17t14 15l22 28q11 16 23 31t31 15z" />
<glyph unicode="&#xcf;" horiz-adv-x="314" d="M77 828q-19 0 -33.5 14t-14.5 34t14.5 34t33.5 14t33.5 -14t14.5 -34t-14.5 -34t-33.5 -14zM117 36l4 58v526l-4 58q0 19 11.5 30.5t28.5 11.5t28.5 -11.5t11.5 -30.5l-4 -58v-526l4 -58q0 -19 -11.5 -30.5t-28.5 -11.5t-28.5 11.5t-11.5 30.5zM238 828q-20 0 -34 14 t-14 34t14 34t34 14t34 -14t14 -34t-14 -34t-34 -14z" />
<glyph unicode="&#xd0;" horiz-adv-x="719" d="M58 396l54 -4h18v223l-4 57q0 19 11.5 30.5t31.5 11.5h172q145 0 225 -89.5t80 -258.5t-80.5 -267.5t-229.5 -98.5h-166q-20 0 -32 11.5t-12 30.5l4 57v225h-18l-54 -4q-18 0 -29 10.5t-11 27.5t11 27.5t29 10.5zM332 319l-54 5h-76v-260h134q115 0 176 82.5t61 219.5 t-58 210.5t-167 73.5h-146v-258h76l54 5q18 0 29 -11t11 -28t-11 -28t-29 -11z" />
<glyph unicode="&#xd1;" horiz-adv-x="742" d="M292 865l1 -14q0 -16 -10 -26.5t-26 -10.5t-26.5 11t-10.5 29q0 37 32 58q21 15 55 15t78 -28t55.5 -28t11.5 6l-2 14q0 16 10 26.5t26 10.5t26.5 -11t10.5 -29q0 -37 -32 -58q-21 -15 -55 -15t-78 28t-55 28t-11 -6zM184 94l4 -58q0 -19 -11.5 -30.5t-28.5 -11.5 t-28.5 11.5t-11.5 30.5l4 58v520l-4 58q0 19 11.5 30.5t34.5 11.5t40 -26l296 -454l75 -121q-4 52 -4 105l-3 402l-4 58q0 19 11.5 30.5t28.5 11.5t28.5 -11.5t11.5 -30.5l-4 -58v-526l4 -58q0 -19 -11.5 -30.5t-26.5 -11.5t-25 6.5t-14.5 12t-14 23t-14.5 24.5l-352 543 q5 -63 5 -96z" />
<glyph unicode="&#xd2;" horiz-adv-x="776" d="M388 729q142 0 228.5 -104.5t86.5 -266.5t-86.5 -267t-228.5 -105t-228.5 105t-86.5 267t86.5 266.5t228.5 104.5zM388 51q108 0 175 88.5t67 218t-67 219t-175 89.5t-175 -89.5t-67 -219t67 -218t175 -88.5zM411.5 805q-9.5 -9 -23 -9t-20.5 5t-15.5 13.5t-15.5 14.5 l-43 33q-17 12 -27.5 21.5t-10.5 27.5t12 28.5t27 10.5t24 -8t17.5 -19t17.5 -20l28 -26q7 -7 23 -20.5t16 -28t-9.5 -23.5z" />
<glyph unicode="&#xd3;" horiz-adv-x="776" d="M388 729q142 0 228.5 -104.5t86.5 -266.5t-86.5 -267t-228.5 -105t-228.5 105t-86.5 267t86.5 266.5t228.5 104.5zM388 51q108 0 175 88.5t67 218t-67 219t-175 89.5t-175 -89.5t-67 -219t67 -218t175 -88.5zM420.5 814.5q-8.5 -8.5 -15.5 -13.5t-20.5 -5t-23 9 t-9.5 23.5t16 28t23 20.5l28 26q8 8 16.5 19t17.5 19.5t24.5 8.5t27.5 -10.5t12 -28.5t-10.5 -27.5t-26.5 -21.5l-44 -33q-7 -6 -15.5 -14.5z" />
<glyph unicode="&#xd4;" horiz-adv-x="776" d="M388 729q142 0 228.5 -104.5t86.5 -266.5t-86.5 -267t-228.5 -105t-228.5 105t-86.5 267t86.5 266.5t228.5 104.5zM388 51q108 0 175 88.5t67 218t-67 219t-175 89.5t-175 -89.5t-67 -219t67 -218t175 -88.5zM388 954q20 0 29 -12t24 -34l23 -28l14 -16q22 -21 22 -36 t-10 -24.5t-25 -9.5t-22.5 8.5t-14.5 20.5t-12 18l-28 38l-29 -38q-4 -5 -11 -17.5t-14.5 -21t-22.5 -8.5t-25 9.5t-10 23t6.5 21.5t15.5 17t14 15l22 28q11 16 22.5 31t31.5 15z" />
<glyph unicode="&#xd5;" horiz-adv-x="776" d="M309 865l1 -14q0 -16 -10 -26.5t-26 -10.5t-26.5 11t-10.5 29q0 37 32 58q21 15 55 15t78 -28t55.5 -28t11.5 6l-2 14q0 16 10 26.5t26 10.5t26.5 -11t10.5 -29q0 -37 -32 -58q-21 -15 -55 -15t-78 28t-55 28t-11 -6zM388 729q142 0 228.5 -104.5t86.5 -266.5t-86.5 -267 t-228.5 -105t-228.5 105t-86.5 267t86.5 266.5t228.5 104.5zM388 51q108 0 175 88.5t67 218t-67 219t-175 89.5t-175 -89.5t-67 -219t67 -218t175 -88.5z" />
<glyph unicode="&#xd6;" horiz-adv-x="776" d="M469 828q-19 0 -33.5 14t-14.5 34t14.5 34t33.5 14t33.5 -14t14.5 -34t-14.5 -34t-33.5 -14zM388 729q142 0 228.5 -104.5t86.5 -266.5t-86.5 -267t-228.5 -105t-228.5 105t-86.5 267t86.5 266.5t228.5 104.5zM388 51q108 0 175 88.5t67 218t-67 219t-175 89.5 t-175 -89.5t-67 -219t67 -218t175 -88.5zM308 828q-20 0 -34 14t-14 34t14 34t34 14t34 -14t14 -34t-14 -34t-34 -14z" />
<glyph unicode="&#xd7;" horiz-adv-x="486" d="M93 371.5q-15 12.5 -24 21.5t-9 23.5t11 26.5t27.5 12t25 -8t20.5 -23.5t17 -21.5l84 -88l82 88q5 6 17 21.5t20.5 23.5t25 8t27.5 -12t11 -26.5t-9 -23.5t-24 -21.5t-21 -19.5l-82 -86l83 -83q6 -7 21 -19.5t24 -21.5t9 -23.5t-11 -26.5t-27.5 -12t-25 8t-20.5 23.5 t-17 21.5l-87 90l-83 -90q-5 -6 -17 -21.5t-20.5 -23.5t-25 -8t-27.5 12t-11 26.5t9 23.5t24 21.5t21 19.5l86 86l-83 83q-6 7 -21 19.5z" />
<glyph unicode="&#xd8;" horiz-adv-x="776" d="M165 -6q-19 0 -30 11.5t-11 26t6.5 23t16.5 19t15 16.5q-89 106 -89 268t86.5 266.5t228.5 104.5q104 0 182 -61q15 30 22.5 41t26.5 11t30 -11.5t11 -26t-6.5 -22.5t-17.5 -20l-17 -20q84 -105 84 -264.5t-86.5 -264.5t-228.5 -105q-101 0 -176 56q-13 -26 -20.5 -37 t-26.5 -11zM388 666q-108 0 -175 -89.5t-67 -217.5t59 -213l328 464q-61 56 -145 56zM563 139.5q67 88.5 67 212.5t-56 210l-326 -462q60 -49 140 -49q108 0 175 88.5z" />
<glyph unicode="&#xd9;" horiz-adv-x="710" d="M617 678l-4 -58v-348q0 -132 -68.5 -209t-189.5 -77t-189.5 77t-68.5 209v348l-4 58q0 19 11.5 30.5t28.5 11.5t28.5 -11.5t11.5 -30.5l-4 -58v-349q0 -101 49 -161t137 -60t137 60t49 161v349l-4 58q0 19 11.5 30.5t28.5 11.5t28.5 -11.5t11.5 -30.5zM378.5 805 q-9.5 -9 -23 -9t-20.5 5t-15.5 13.5t-15.5 14.5l-44 33q-16 12 -26.5 21.5t-10.5 27.5t12 28.5t27.5 10.5t24 -8t17 -19t17.5 -20l28 -26q7 -7 23 -20.5t16 -28t-9.5 -23.5z" />
<glyph unicode="&#xda;" horiz-adv-x="710" d="M617 678l-4 -58v-348q0 -132 -68.5 -209t-189.5 -77t-189.5 77t-68.5 209v348l-4 58q0 19 11.5 30.5t28.5 11.5t28.5 -11.5t11.5 -30.5l-4 -58v-349q0 -101 49 -161t137 -60t137 60t49 161v349l-4 58q0 19 11.5 30.5t28.5 11.5t28.5 -11.5t11.5 -30.5zM387.5 814.5 q-8.5 -8.5 -15.5 -13.5t-20.5 -5t-23 9t-9.5 23.5t16 28t23 20.5l28 26q8 8 16.5 19t18 19.5t24.5 8.5t27 -10.5t12 -28.5t-10.5 -27.5t-27.5 -21.5l-43 -33q-7 -6 -15.5 -14.5z" />
<glyph unicode="&#xdb;" horiz-adv-x="710" d="M617 678l-4 -58v-348q0 -132 -68.5 -209t-189.5 -77t-189.5 77t-68.5 209v348l-4 58q0 19 11.5 30.5t28.5 11.5t28.5 -11.5t11.5 -30.5l-4 -58v-349q0 -101 49 -161t137 -60t137 60t49 161v349l-4 58q0 19 11.5 30.5t28.5 11.5t28.5 -11.5t11.5 -30.5zM355 954 q19 0 28.5 -12t24.5 -34l23 -28q5 -6 15 -16q21 -21 21 -36t-10 -24.5t-25 -9.5t-22.5 8.5t-14.5 20.5t-12 18l-28 38l-29 -38q-4 -5 -11 -17.5t-14.5 -21t-22.5 -8.5t-25 9.5t-10 23t6.5 21.5t15.5 17t14 15l22 28q11 16 23 31t31 15z" />
<glyph unicode="&#xdc;" horiz-adv-x="710" d="M275 828q-19 0 -33.5 14t-14.5 34t14.5 34t33.5 14t33.5 -14t14.5 -34t-14.5 -34t-33.5 -14zM617 678l-4 -58v-348q0 -132 -68.5 -209t-189.5 -77t-189.5 77t-68.5 209v348l-4 58q0 19 11.5 30.5t28.5 11.5t28.5 -11.5t11.5 -30.5l-4 -58v-349q0 -101 49 -161t137 -60 t137 60t49 161v349l-4 58q0 19 11.5 30.5t28.5 11.5t28.5 -11.5t11.5 -30.5zM436 828q-20 0 -34 14t-14 34t14 34t34 14t34 -14t14 -34t-14 -34t-34 -14z" />
<glyph unicode="&#xdd;" horiz-adv-x="579" d="M324 94l4 -58q0 -19 -11.5 -30.5t-28.5 -11.5t-28.5 11.5t-11.5 30.5l4 58v153l-192 366q-4 9 -15.5 27t-15.5 25t-4 20.5t10.5 24t31 10.5t31.5 -24q2 -4 8.5 -23t11.5 -28l172 -329l171 329q5 9 11.5 27.5t8.5 22.5q11 25 31.5 25t31 -10.5t10.5 -24t-4 -20.5 t-15.5 -25t-15.5 -26l-195 -369v-151zM321.5 814.5q-8.5 -8.5 -15.5 -13.5t-20.5 -5t-23 9t-9.5 23.5t16 28t23 20.5l28 26q8 8 16.5 19t18 19.5t24.5 8.5t27 -10.5t12 -28.5t-10.5 -27.5t-27.5 -21.5l-43 -33q-7 -6 -15.5 -14.5z" />
<glyph unicode="&#xde;" horiz-adv-x="620" d="M108 34l4 58v528l-4 58q0 19 11.5 30.5t28.5 11.5t28.5 -11.5t11.5 -30.5l-4 -58v-40h139q110 0 179.5 -55.5t69.5 -163t-70.5 -167.5t-178.5 -60h-139v-42l4 -58q0 -19 -11.5 -30.5t-28.5 -11.5t-28.5 11.5t-11.5 30.5zM323 516h-139v-317h139q81 0 129 41t48 122 q0 154 -177 154z" />
<glyph unicode="&#xdf;" horiz-adv-x="583" d="M88 36l4 58l-1 415q0 108 49 164.5t130.5 56.5t131 -51.5t49.5 -127.5q0 -99 -81 -150q63 -13 106.5 -67.5t43.5 -137.5t-57 -142.5t-152.5 -59.5t-95.5 51q0 14 9.5 24.5t23.5 10.5t20 -4l12 -7q7 -4 8.5 -5t6.5 -3t7 -2.5t7.5 -1.5t10.5 -1h13q52 0 85 44.5t33 110 t-40.5 104.5t-106.5 39l-28 -3q-15 0 -25 9.5t-10 24t10 24.5t25 10q46 0 76.5 33t30.5 88t-26.5 90.5t-82.5 35.5q-114 0 -114 -158v-414l4 -58q0 -19 -10.5 -30.5t-27.5 -11.5t-27.5 11.5t-10.5 30.5z" />
<glyph unicode="&#xe0;" horiz-adv-x="503" d="M416 65l20 4q15 0 24.5 -10t9.5 -26.5t-15 -27.5t-40 -11q-46 0 -62 40q-51 -48 -130 -48t-127 40.5t-48 106.5t44 108.5t135 46.5t114 29v26q0 39 -26.5 64.5t-69.5 25.5q-68 0 -84 -58q-9 -27 -31 -27t-32 11t-10 26.5t12 34.5q45 70 147 70q75 0 120 -42t45 -112v-262 q0 -9 4 -9zM148 72q30 -24 91.5 -24t101.5 40v167q-31 -23 -99.5 -27.5t-96 -29t-27.5 -63.5t30 -63zM282.5 559q-9.5 -9 -23 -9t-20.5 5t-15.5 13.5t-15.5 14.5l-31 27l-25 19q-17 12 -27.5 21.5t-10.5 27.5t12 28.5t27 10.5t24 -8t17.5 -18t17.5 -19l41 -41q7 -7 23 -20.5 t16 -28t-9.5 -23.5z" />
<glyph unicode="&#xe1;" horiz-adv-x="503" d="M296.5 571.5q-8.5 -8.5 -15.5 -13.5t-20.5 -5t-23 9t-9.5 23.5t16 28t23 20.5l41 41q9 9 17.5 19t17.5 18t24 8t27 -10.5t12 -28.5t-10.5 -27.5t-27.5 -21.5l-25 -19l-31 -27q-7 -6 -15.5 -14.5zM416 65l20 4q15 0 24.5 -10t9.5 -26.5t-15 -27.5t-40 -11q-46 0 -62 40 q-51 -48 -130 -48t-127 40.5t-48 106.5t44 108.5t135 46.5t114 29v26q0 39 -26.5 64.5t-69.5 25.5q-68 0 -84 -58q-9 -27 -31 -27t-32 11t-10 26.5t12 34.5q45 70 147 70q75 0 120 -42t45 -112v-262q0 -9 4 -9zM148 72q30 -24 91.5 -24t101.5 40v167q-31 -23 -99.5 -27.5 t-96 -29t-27.5 -63.5t30 -63z" />
<glyph unicode="&#xe2;" horiz-adv-x="503" d="M259 740q20 0 29 -11t15.5 -21.5t10.5 -15.5l25 -30l14 -16q24 -23 24 -38.5t-10.5 -25.5t-26 -10t-23.5 9.5t-15.5 22.5t-12.5 19l-30 42l-30 -42q-5 -6 -12.5 -19t-15.5 -22.5t-23.5 -9.5t-26 10t-10.5 24t7 22.5t16.5 18t14.5 15.5l25 30q4 5 10.5 15.5t15.5 21.5 t29 11zM416 65l20 4q15 0 24.5 -10t9.5 -26.5t-15 -27.5t-40 -11q-46 0 -62 40q-51 -48 -130 -48t-127 40.5t-48 106.5t44 108.5t135 46.5t114 29v26q0 39 -26.5 64.5t-69.5 25.5q-68 0 -84 -58q-9 -27 -31 -27t-32 11t-10 26.5t12 34.5q45 70 147 70q75 0 120 -42t45 -112 v-262q0 -9 4 -9zM148 72q30 -24 91.5 -24t101.5 40v167q-31 -23 -99.5 -27.5t-96 -29t-27.5 -63.5t30 -63z" />
<glyph unicode="&#xe3;" horiz-adv-x="503" d="M180 627l1 -14q0 -16 -10 -26.5t-26 -10.5t-26.5 11t-10.5 29q0 37 32 58q21 15 55 15t78 -28t55.5 -28t11.5 6l-2 14q0 16 10 26.5t26 10.5t26.5 -11t10.5 -29q0 -37 -32 -58q-21 -15 -55 -15t-78 28t-55 28t-11 -6zM416 65l20 4q15 0 24.5 -10t9.5 -26.5t-15 -27.5 t-40 -11q-46 0 -62 40q-51 -48 -130 -48t-127 40.5t-48 106.5t44 108.5t135 46.5t114 29v26q0 39 -26.5 64.5t-69.5 25.5q-68 0 -84 -58q-9 -27 -31 -27t-32 11t-10 26.5t12 34.5q45 70 147 70q75 0 120 -42t45 -112v-262q0 -9 4 -9zM148 72q30 -24 91.5 -24t101.5 40v167 q-31 -23 -99.5 -27.5t-96 -29t-27.5 -63.5t30 -63z" />
<glyph unicode="&#xe4;" horiz-adv-x="503" d="M416 65l20 4q15 0 24.5 -10t9.5 -26.5t-15 -27.5t-40 -11q-46 0 -62 40q-51 -48 -130 -48t-127 40.5t-48 106.5t44 108.5t135 46.5t114 29v26q0 39 -26.5 64.5t-69.5 25.5q-68 0 -84 -58q-9 -27 -31 -27t-32 11t-10 26.5t12 34.5q45 70 147 70q75 0 120 -42t45 -112v-262 q0 -9 4 -9zM148 72q30 -24 91.5 -24t101.5 40v167q-31 -23 -99.5 -27.5t-96 -29t-27.5 -63.5t30 -63zM340 585q-20 0 -34 14.5t-14 33.5t14 33.5t34 14.5t34 -14.5t14 -33.5t-14 -33.5t-34 -14.5zM179 585q-19 0 -33.5 14.5t-14.5 33.5t14.5 33.5t33.5 14.5t33.5 -14.5 t14.5 -33.5t-14.5 -33.5t-33.5 -14.5z" />
<glyph unicode="&#xe5;" horiz-adv-x="503" d="M416 65l20 4q15 0 24.5 -10t9.5 -26.5t-15 -27.5t-40 -11q-46 0 -62 40q-51 -48 -130 -48t-127 40.5t-48 106.5t44 108.5t135 46.5t114 29v26q0 39 -26.5 64.5t-69.5 25.5q-68 0 -84 -58q-9 -27 -31 -27t-32 11t-10 26.5t12 34.5q45 70 147 70q75 0 120 -42t45 -112v-262 q0 -9 4 -9zM148 72q30 -24 91.5 -24t101.5 40v167q-31 -23 -99.5 -27.5t-96 -29t-27.5 -63.5t30 -63zM144 687q0 48 33.5 82t81.5 34t82 -34t34 -82t-34 -81.5t-82 -33.5t-81.5 33.5t-33.5 81.5zM195 687q0 -28 18.5 -47.5t46 -19.5t46 19.5t18.5 47.5t-19 48t-46 20 t-45.5 -20t-18.5 -48z" />
<glyph unicode="&#xe6;" horiz-adv-x="815" d="M731 72q-62 -86 -167.5 -86t-165.5 71q-64 -71 -169 -71q-80 0 -130.5 42t-50.5 107.5t43 107t126 45.5q129 7 129 72q0 30 -29 51.5t-69.5 21.5t-60 -14t-25.5 -35q-10 -36 -39 -36q-16 0 -25.5 11t-9.5 23q0 44 58 82q40 26 96 26q113 0 151 -82q64 82 157 82t150 -64 t57 -151q0 -58 -53 -58h-302q6 -77 47 -123t103 -47q92 0 119 68q10 26 31 26q42 0 42 -35q0 -16 -13 -34zM236 46q80 0 130 60q-29 60 -29 140v12q-34 -25 -101 -30q-118 -9 -118 -93q0 -39 33.5 -64t84.5 -25zM655 382.5q-36 47.5 -97.5 47.5t-103.5 -41.5t-51 -112.5h288 q0 59 -36 106.5z" />
<glyph unicode="&#xe7;" horiz-adv-x="528" d="M282 -98l-42 -7q-13 0 -21 8.5t-8 24t20 25.5t28 35q-92 9 -144 79.5t-52 173.5t59.5 176t165 73t163.5 -72q20 -26 20 -42t-11 -26.5t-31.5 -10.5t-31.5 26q-29 65 -105.5 65t-117.5 -56.5t-41 -135.5t41 -135q40 -55 109 -55h2q90 0 117 67q10 26 32 26q41 0 41 -35 q0 -21 -23 -49q-52 -59 -135 -69q-5 -25 -19 -40q15 -1 38 -10t43 -32t20 -62t-35 -68.5t-92 -29.5t-95 35q-18 17 -18 31t9 23.5t26 9.5t30.5 -22t47 -22t51 14.5t17.5 36t-17.5 36t-40.5 14.5z" />
<glyph unicode="&#xe8;" horiz-adv-x="551" d="M125 419.5q64 70.5 157 70.5t150 -64t57 -151q0 -58 -53 -58h-305q6 -77 48.5 -123.5t107.5 -46.5q92 0 119 68q10 26 32 26q41 0 41 -35q0 -16 -13 -34q-62 -86 -170 -86t-171.5 70t-63.5 181.5t64 182zM387 383.5q-36 47.5 -101.5 47.5t-107 -43t-47.5 -112h292 q0 60 -36 107.5zM310.5 559q-9.5 -9 -23 -9t-20.5 5t-15.5 13.5t-15.5 14.5l-31 27l-25 19q-17 12 -27.5 21.5t-10.5 27.5t12 28.5t27 10.5t24 -8t17.5 -18t17.5 -19l41 -41q7 -7 23 -20.5t16 -28t-9.5 -23.5z" />
<glyph unicode="&#xe9;" horiz-adv-x="551" d="M324.5 571.5q-8.5 -8.5 -15.5 -13.5t-20.5 -5t-23 9t-9.5 23.5t16 28t23 20.5l41 41q9 9 17.5 19t17.5 18t24 8t27 -10.5t12 -28.5t-10.5 -27.5t-27.5 -21.5l-25 -19l-31 -27q-7 -6 -15.5 -14.5zM125 419.5q64 70.5 157 70.5t150 -64t57 -151q0 -58 -53 -58h-305 q6 -77 48.5 -123.5t107.5 -46.5q92 0 119 68q10 26 32 26q41 0 41 -35q0 -16 -13 -34q-62 -86 -170 -86t-171.5 70t-63.5 181.5t64 182zM387 383.5q-36 47.5 -101.5 47.5t-107 -43t-47.5 -112h292q0 60 -36 107.5z" />
<glyph unicode="&#xea;" horiz-adv-x="551" d="M287 740q20 0 29 -11t15.5 -21.5t10.5 -15.5l25 -30l14 -16q24 -23 24 -38.5t-10.5 -25.5t-26 -10t-23.5 9.5t-15.5 22.5t-12.5 19l-30 42l-30 -42q-5 -6 -12.5 -19t-15.5 -22.5t-23.5 -9.5t-26 10t-10.5 24t7 22.5t16.5 18t14.5 15.5l25 30q4 5 10.5 15.5t15.5 21.5 t29 11zM125 419.5q64 70.5 157 70.5t150 -64t57 -151q0 -58 -53 -58h-305q6 -77 48.5 -123.5t107.5 -46.5q92 0 119 68q10 26 32 26q41 0 41 -35q0 -16 -13 -34q-62 -86 -170 -86t-171.5 70t-63.5 181.5t64 182zM387 383.5q-36 47.5 -101.5 47.5t-107 -43t-47.5 -112h292 q0 60 -36 107.5z" />
<glyph unicode="&#xeb;" horiz-adv-x="551" d="M125 419.5q64 70.5 157 70.5t150 -64t57 -151q0 -58 -53 -58h-305q6 -77 48.5 -123.5t107.5 -46.5q92 0 119 68q10 26 32 26q41 0 41 -35q0 -16 -13 -34q-62 -86 -170 -86t-171.5 70t-63.5 181.5t64 182zM387 383.5q-36 47.5 -101.5 47.5t-107 -43t-47.5 -112h292 q0 60 -36 107.5zM368 585q-20 0 -34 14.5t-14 33.5t14 33.5t34 14.5t34 -14.5t14 -33.5t-14 -33.5t-34 -14.5zM207 585q-19 0 -33.5 14.5t-14.5 33.5t14.5 33.5t33.5 14.5t33.5 -14.5t14.5 -33.5t-14.5 -33.5t-33.5 -14.5z" />
<glyph unicode="&#xec;" horiz-adv-x="264" d="M93 33l4 55v296l-4 55q0 17 11.5 28t27.5 11t27.5 -11t11.5 -28l-4 -55v-296l4 -55q0 -17 -11.5 -28t-27.5 -11t-27.5 11t-11.5 28zM155.5 559q-9.5 -9 -23 -9t-20.5 5t-15.5 13.5t-15.5 14.5l-31 27l-26 19q-16 12 -26.5 21.5t-10.5 27.5t12 28.5t27.5 10.5t24 -8 t17 -18t17.5 -19l41 -41q7 -7 23 -20.5t16 -28t-9.5 -23.5z" />
<glyph unicode="&#xed;" horiz-adv-x="264" d="M93 33l4 55v296l-4 55q0 17 11.5 28t27.5 11t27.5 -11t11.5 -28l-4 -55v-296l4 -55q0 -17 -11.5 -28t-27.5 -11t-27.5 11t-11.5 28zM169.5 571.5q-8.5 -8.5 -15.5 -13.5t-20.5 -5t-23 9t-9.5 23.5t16 28t23 20.5l41 41q9 9 17.5 19t17 18t24 8t27.5 -10.5t12 -28.5 t-10.5 -27.5t-26.5 -21.5l-26 -19l-31 -27q-7 -6 -15.5 -14.5z" />
<glyph unicode="&#xee;" horiz-adv-x="264" d="M132 740q20 0 29 -11t15.5 -21.5t10.5 -15.5l25 -30l14 -16q24 -23 24 -38.5t-10.5 -25.5t-26 -10t-23.5 9.5t-15.5 22.5t-12.5 19l-30 42l-30 -42q-5 -6 -12.5 -19t-15.5 -22.5t-23.5 -9.5t-26 10t-10.5 24t7 22.5t16.5 18t14.5 15.5l25 30q4 5 10.5 15.5t15.5 21.5 t29 11zM93 33l4 55v296l-4 55q0 17 11.5 28t27.5 11t27.5 -11t11.5 -28l-4 -55v-296l4 -55q0 -17 -11.5 -28t-27.5 -11t-27.5 11t-11.5 28z" />
<glyph unicode="&#xef;" horiz-adv-x="264" d="M52 585q-20 0 -34 14.5t-14 33.5t14 33.5t34 14.5t34 -14.5t14 -33.5t-14 -33.5t-34 -14.5zM213 585q-19 0 -33.5 14.5t-14.5 33.5t14.5 33.5t33.5 14.5t33.5 -14.5t14.5 -33.5t-14.5 -33.5t-33.5 -14.5zM93 33l4 55v296l-4 55q0 17 11.5 28t27.5 11t27.5 -11t11.5 -28 l-4 -55v-296l4 -55q0 -17 -11.5 -28t-27.5 -11t-27.5 11t-11.5 28z" />
<glyph unicode="&#xf0;" horiz-adv-x="581" d="M227 725q49 0 127 -65l36 21q8 5 21 15q23 18 37.5 18t24.5 -9.5t10 -26.5q0 -23 -39 -37q-13 -5 -23 -11l-24 -14q116 -137 116 -319q0 -134 -58.5 -222t-164.5 -88t-166.5 73t-60.5 179t60.5 179t154.5 73t151 -55q-26 84 -88 150l-33 -18q-9 -5 -22 -14 q-24 -19 -38 -19t-23.5 9.5t-9.5 25.5q0 23 39 36q13 5 23 11l19 10q-23 16 -63 27t-40 38q0 15 10.5 24t23.5 9zM441 211q8 42 8 78.5t-3 63.5q-26 37 -65.5 57.5t-79.5 20.5q-80 0 -124 -56t-44 -135t42 -135.5t112 -56.5q123 0 154 163z" />
<glyph unicode="&#xf1;" horiz-adv-x="566" d="M206 627l1 -14q0 -16 -10 -26.5t-26 -10.5t-26.5 11t-10.5 29q0 37 32 58q21 15 55 15t78 -28t55.5 -28t11.5 6l-2 14q0 16 10 26.5t26 10.5t26.5 -11t10.5 -29q0 -37 -32 -58q-21 -15 -55 -15t-78 28t-55 28t-11 -6zM405 33l4 55v216q0 58 -31 92t-82 34q-76 0 -130 -72 v-270l4 -55q0 -17 -11 -28t-28 -11t-28 11t-11 28l4 55v294l-8 56q0 18 11.5 29t28.5 11t27.5 -11t10.5 -29v-13q57 65 139 65t128 -50.5t46 -127.5v-224l4 -55q0 -17 -11.5 -28t-27.5 -11t-27.5 11t-11.5 28z" />
<glyph unicode="&#xf2;" horiz-adv-x="574" d="M287 47q70 0 112 56.5t42 134.5t-42 135t-112 57t-112 -57t-42 -135t42 -134.5t112 -56.5zM287 490q103 0 163.5 -73t60.5 -179t-60.5 -179t-163.5 -73t-163.5 73t-60.5 179t60.5 179t163.5 73zM310.5 559q-9.5 -9 -23 -9t-20.5 5t-15.5 13.5t-15.5 14.5l-31 27l-25 19 q-17 12 -27.5 21.5t-10.5 27.5t12 28.5t27 10.5t24 -8t17.5 -18t17.5 -19l41 -41q7 -7 23 -20.5t16 -28t-9.5 -23.5z" />
<glyph unicode="&#xf3;" horiz-adv-x="574" d="M324.5 571.5q-8.5 -8.5 -15.5 -13.5t-20.5 -5t-23 9t-9.5 23.5t16 28t23 20.5l41 41q9 9 17.5 19t17.5 18t24 8t27 -10.5t12 -28.5t-10.5 -27.5t-27.5 -21.5l-25 -19l-31 -27q-7 -6 -15.5 -14.5zM287 47q70 0 112 56.5t42 134.5t-42 135t-112 57t-112 -57t-42 -135 t42 -134.5t112 -56.5zM287 490q103 0 163.5 -73t60.5 -179t-60.5 -179t-163.5 -73t-163.5 73t-60.5 179t60.5 179t163.5 73z" />
<glyph unicode="&#xf4;" horiz-adv-x="574" d="M287 740q20 0 29 -11t15.5 -21.5t10.5 -15.5l25 -30l14 -16q24 -23 24 -38.5t-10.5 -25.5t-26 -10t-23.5 9.5t-15.5 22.5t-12.5 19l-30 42l-30 -42q-5 -6 -12.5 -19t-15.5 -22.5t-23.5 -9.5t-26 10t-10.5 24t7 22.5t16.5 18t14.5 15.5l25 30q4 5 10.5 15.5t15.5 21.5 t29 11zM287 47q70 0 112 56.5t42 134.5t-42 135t-112 57t-112 -57t-42 -135t42 -134.5t112 -56.5zM287 490q103 0 163.5 -73t60.5 -179t-60.5 -179t-163.5 -73t-163.5 73t-60.5 179t60.5 179t163.5 73z" />
<glyph unicode="&#xf5;" horiz-adv-x="574" d="M208 627l1 -14q0 -16 -10 -26.5t-26 -10.5t-26.5 11t-10.5 29q0 37 32 58q21 15 55 15t78 -28t55.5 -28t11.5 6l-2 14q0 16 10 26.5t26 10.5t26.5 -11t10.5 -29q0 -37 -32 -58q-21 -15 -55 -15t-78 28t-55 28t-11 -6zM287 47q70 0 112 56.5t42 134.5t-42 135t-112 57 t-112 -57t-42 -135t42 -134.5t112 -56.5zM287 490q103 0 163.5 -73t60.5 -179t-60.5 -179t-163.5 -73t-163.5 73t-60.5 179t60.5 179t163.5 73z" />
<glyph unicode="&#xf6;" horiz-adv-x="574" d="M287 47q70 0 112 56.5t42 134.5t-42 135t-112 57t-112 -57t-42 -135t42 -134.5t112 -56.5zM287 490q103 0 163.5 -73t60.5 -179t-60.5 -179t-163.5 -73t-163.5 73t-60.5 179t60.5 179t163.5 73zM368 585q-20 0 -34 14.5t-14 33.5t14 33.5t34 14.5t34 -14.5t14 -33.5 t-14 -33.5t-34 -14.5zM207 585q-19 0 -33.5 14.5t-14.5 33.5t14.5 33.5t33.5 14.5t33.5 -14.5t14.5 -33.5t-14.5 -33.5t-33.5 -14.5z" />
<glyph unicode="&#xf7;" horiz-adv-x="486" d="M152 270l-54 -4q-18 0 -29 11t-11 28t11 28t29 11l54 -4h182l54 4q18 0 29 -11t11 -28t-11 -28t-29 -11l-54 4h-182zM242 94q-23 0 -38.5 15t-15.5 37t15.5 37t38.5 15t38.5 -15t15.5 -37t-15.5 -37t-38.5 -15zM242 404q-23 0 -38.5 15t-15.5 37t15.5 37t38.5 15 t38.5 -15t15.5 -37t-15.5 -37t-38.5 -15z" />
<glyph unicode="&#xf8;" horiz-adv-x="586" d="M453.5 59q-60.5 -73 -153.5 -73t-150 51q-12 -20 -20 -31.5t-26.5 -11.5t-29.5 11.5t-11 26.5t6.5 22.5t19.5 18.5t17 16q-40 65 -40 160t60.5 168t152 73t150.5 -51q4 5 12 18t15.5 23t26 10t29.5 -11.5t11 -26.5t-7 -23t-21 -21q-5 -4 -22 -21q41 -66 41 -160.5 t-60.5 -167.5zM387 390q-40 40 -104 40t-106 -57t-42 -125t20 -111zM401 103.5q42 56.5 42 124t-20 110.5l-232 -253q40 -38 104 -38t106 56.5z" />
<glyph unicode="&#xf9;" horiz-adv-x="566" d="M161 439l-4 -55v-212q0 -58 31.5 -92t96.5 -34t115 59v279l-4 55q0 17 11 28t28 11t28 -11t11 -28l-4 -55v-294l8 -56q0 -18 -11.5 -29t-28.5 -11t-27.5 11t-10.5 29v8q-54 -56 -134.5 -56t-129.5 50.5t-49 127.5v220l-4 55q0 17 11.5 28t27.5 11t27.5 -11t11.5 -28z M303.5 559q-9.5 -9 -23 -9t-20.5 5t-15.5 13.5t-15.5 14.5l-31 27l-26 19q-16 12 -26.5 21.5t-10.5 27.5t12 28.5t27.5 10.5t24 -8t17 -18t17.5 -19l41 -41q7 -7 23 -20.5t16 -28t-9.5 -23.5z" />
<glyph unicode="&#xfa;" horiz-adv-x="566" d="M161 439l-4 -55v-212q0 -58 31.5 -92t96.5 -34t115 59v279l-4 55q0 17 11 28t28 11t28 -11t11 -28l-4 -55v-294l8 -56q0 -18 -11.5 -29t-28.5 -11t-27.5 11t-10.5 29v8q-54 -56 -134.5 -56t-129.5 50.5t-49 127.5v220l-4 55q0 17 11.5 28t27.5 11t27.5 -11t11.5 -28z M317.5 571.5q-8.5 -8.5 -15.5 -13.5t-20.5 -5t-23 9t-9.5 23.5t16 28t23 20.5l41 41q9 9 17.5 19t17 18t24 8t27.5 -10.5t12 -28.5t-10.5 -27.5t-26.5 -21.5l-26 -19l-31 -27q-7 -6 -15.5 -14.5z" />
<glyph unicode="&#xfb;" horiz-adv-x="566" d="M280 740q20 0 29 -11t15.5 -21.5t10.5 -15.5l25 -30l14 -16q24 -23 24 -38.5t-10.5 -25.5t-26 -10t-23.5 9.5t-15.5 22.5t-12.5 19l-30 42l-30 -42q-5 -6 -12.5 -19t-15.5 -22.5t-23.5 -9.5t-26 10t-10.5 24t7 22.5t16.5 18t14.5 15.5l25 30q4 5 10.5 15.5t15.5 21.5 t29 11zM161 439l-4 -55v-212q0 -58 31.5 -92t96.5 -34t115 59v279l-4 55q0 17 11 28t28 11t28 -11t11 -28l-4 -55v-294l8 -56q0 -18 -11.5 -29t-28.5 -11t-27.5 11t-10.5 29v8q-54 -56 -134.5 -56t-129.5 50.5t-49 127.5v220l-4 55q0 17 11.5 28t27.5 11t27.5 -11t11.5 -28z " />
<glyph unicode="&#xfc;" horiz-adv-x="566" d="M200 585q-20 0 -34 14.5t-14 33.5t14 33.5t34 14.5t34 -14.5t14 -33.5t-14 -33.5t-34 -14.5zM361 585q-19 0 -33.5 14.5t-14.5 33.5t14.5 33.5t33.5 14.5t33.5 -14.5t14.5 -33.5t-14.5 -33.5t-33.5 -14.5zM161 439l-4 -55v-212q0 -58 31.5 -92t96.5 -34t115 59v279l-4 55 q0 17 11 28t28 11t28 -11t11 -28l-4 -55v-294l8 -56q0 -18 -11.5 -29t-28.5 -11t-27.5 11t-10.5 29v8q-54 -56 -134.5 -56t-129.5 50.5t-49 127.5v220l-4 55q0 17 11.5 28t27.5 11t27.5 -11t11.5 -28z" />
<glyph unicode="&#xfd;" horiz-adv-x="476" d="M78 -150l46 -11q27 0 43 40l42 114h-1q-31 0 -41 26q-3 7 -5.5 26t-7.5 32l-104 300q-4 10 -10 23l-7 14q-7 16 -7 29.5t11 24t32 10.5t29 -22q2 -6 7 -26t8 -28l100 -288q11 -34 18 -63l132 351q3 8 8 27.5t7 25.5q9 23 30 23t32 -11t11 -24.5t-4 -21.5t-8 -15t-7 -14 l-209 -541q-30 -80 -124 -80q-26 0 -42 11t-16 28t11 28.5t26 11.5zM275.5 571.5q-8.5 -8.5 -15.5 -13.5t-20.5 -5t-23 9t-9.5 23.5t16 28t23 20.5l41 41q9 9 17.5 19t17 18t24 8t27.5 -10.5t12 -28.5t-10.5 -27.5t-26.5 -21.5l-26 -19l-31 -27q-7 -6 -15.5 -14.5z" />
<glyph unicode="&#xfe;" horiz-adv-x="556" d="M166 690l-4 -55v-192q49 47 119 47q97 0 154.5 -72.5t57.5 -178.5t-59 -179.5t-157 -73.5q-66 0 -115 47v-137l4 -55q0 -17 -11 -28t-28 -11t-28 11t-11 28l4 55v739l-4 55q0 16 11 27.5t28 11.5t28 -11.5t11 -27.5zM383.5 375q-39.5 55 -110.5 55t-111 -55v-277 q37 -51 107.5 -51t112 56t41.5 136.5t-39.5 135.5z" />
<glyph unicode="&#xff;" horiz-adv-x="476" d="M158 585q-20 0 -34 14.5t-14 33.5t14 33.5t34 14.5t34 -14.5t14 -33.5t-14 -33.5t-34 -14.5zM319 585q-19 0 -33.5 14.5t-14.5 33.5t14.5 33.5t33.5 14.5t33.5 -14.5t14.5 -33.5t-14.5 -33.5t-33.5 -14.5zM78 -150l46 -11q27 0 43 40l42 114h-1q-31 0 -41 26 q-3 7 -5.5 26t-7.5 32l-104 300q-4 10 -10 23l-7 14q-7 16 -7 29.5t11 24t32 10.5t29 -22q2 -6 7 -26t8 -28l100 -288q11 -34 18 -63l132 351q3 8 8 27.5t7 25.5q9 23 30 23t32 -11t11 -24.5t-4 -21.5t-8 -15t-7 -14l-209 -541q-30 -80 -124 -80q-26 0 -42 11t-16 28 t11 28.5t26 11.5z" />
<glyph unicode="&#x152;" horiz-adv-x="987" d="M865 63l52 7q15 0 26 -10t11 -25t-10.5 -25t-26.5 -10h-307q-73 0 -129 2q-45 -16 -93 -16q-142 0 -228.5 105t-86.5 267t86.5 266.5t228.5 104.5q50 0 99 -18q84 3 133 3h277q16 0 26.5 -10t10.5 -25t-11 -25t-26 -10l-52 7h-262q91 -87 108 -235h95l49 3 q16 0 26.5 -10.5t10.5 -25.5t-10.5 -25.5t-26.5 -10.5l-49 3h-91q-1 -88 -31.5 -162.5t-82.5 -124.5h284zM386 51q108 0 173.5 88t65.5 218t-66 219.5t-173.5 89.5t-174.5 -89.5t-67 -219t67 -218t175 -88.5z" />
<glyph unicode="&#x153;" horiz-adv-x="915" d="M284 -14q-101 0 -161 73t-60 179t60 179t161 73q126 0 185 -114q58 114 188 114q92 0 147.5 -63.5t55.5 -151.5q0 -58 -53 -58h-303q6 -77 49 -123.5t108 -46.5q92 0 119 68q10 26 32 26q41 0 41 -35q0 -16 -13 -34q-62 -86 -186.5 -86t-184.5 113q-60 -113 -185 -113z M281 47q68 0 109.5 56.5t41.5 134.5t-41.5 135t-109.5 57t-108.5 -56.5t-40.5 -135t40.5 -135t108.5 -56.5zM759.5 383.5q-34.5 47.5 -100 47.5t-107.5 -43t-48 -112h290q0 60 -34.5 107.5z" />
<glyph unicode="&#x178;" horiz-adv-x="579" d="M209 828q-19 0 -33.5 14t-14.5 34t14.5 34t33.5 14t33.5 -14t14.5 -34t-14.5 -34t-33.5 -14zM324 94l4 -58q0 -19 -11.5 -30.5t-28.5 -11.5t-28.5 11.5t-11.5 30.5l4 58v153l-192 366q-4 9 -15.5 27t-15.5 25t-4 20.5t10.5 24t31 10.5t31.5 -24q2 -4 8.5 -23t11.5 -28 l172 -329l171 329q5 9 11.5 27.5t8.5 22.5q11 25 31.5 25t31 -10.5t10.5 -24t-4 -20.5t-15.5 -25t-15.5 -26l-195 -369v-151zM370 828q-20 0 -34 14t-14 34t14 34t34 14t34 -14t14 -34t-14 -34t-34 -14z" />
<glyph unicode="&#x2c6;" horiz-adv-x="396" d="M198 740q20 0 29 -11t15.5 -21.5t10.5 -15.5l25 -30l14 -16q24 -23 24 -38.5t-10.5 -25.5t-26 -10t-23.5 9.5t-15.5 22.5t-12.5 19l-30 42l-30 -42q-5 -6 -12.5 -19t-15.5 -22.5t-23.5 -9.5t-26 10t-10.5 24t7 22.5t16.5 18t14.5 15.5l25 30q4 5 10.5 15.5t15.5 21.5 t29 11z" />
<glyph unicode="&#x2dc;" horiz-adv-x="463" d="M152 627l1 -14q0 -16 -10 -26.5t-26 -10.5t-26.5 11t-10.5 29q0 37 32 58q21 15 55 15t78 -28t55.5 -28t11.5 6l-2 14q0 16 10 26.5t26 10.5t26.5 -11t10.5 -29q0 -37 -32 -58q-21 -15 -55 -15t-78 28t-55 28t-11 -6z" />
<glyph unicode="&#x2000;" horiz-adv-x="477" />
<glyph unicode="&#x2001;" horiz-adv-x="954" />
<glyph unicode="&#x2002;" horiz-adv-x="477" />
<glyph unicode="&#x2003;" horiz-adv-x="954" />
<glyph unicode="&#x2004;" horiz-adv-x="318" />
<glyph unicode="&#x2005;" horiz-adv-x="238" />
<glyph unicode="&#x2006;" horiz-adv-x="159" />
<glyph unicode="&#x2007;" horiz-adv-x="159" />
<glyph unicode="&#x2008;" horiz-adv-x="119" />
<glyph unicode="&#x2009;" horiz-adv-x="190" />
<glyph unicode="&#x200a;" horiz-adv-x="53" />
<glyph unicode="&#x2010;" horiz-adv-x="385" d="M145 236l-49 -4q-16 0 -26.5 11t-10.5 26t10.5 26t26.5 11l49 -4h95l49 4q16 0 26.5 -11t10.5 -26t-10.5 -26t-26.5 -11l-49 4h-95z" />
<glyph unicode="&#x2011;" horiz-adv-x="385" d="M145 236l-49 -4q-16 0 -26.5 11t-10.5 26t10.5 26t26.5 11l49 -4h95l49 4q16 0 26.5 -11t10.5 -26t-10.5 -26t-26.5 -11l-49 4h-95z" />
<glyph unicode="&#x2013;" horiz-adv-x="500" d="M145 236l-49 -4q-16 0 -26.5 11t-10.5 26t10.5 26t26.5 11l49 -4h210l49 4q16 0 26.5 -11t10.5 -26t-10.5 -26t-26.5 -11l-49 4h-210z" />
<glyph unicode="&#x2014;" horiz-adv-x="1000" d="M145 236l-49 -4q-16 0 -26.5 11t-10.5 26t10.5 26t26.5 11l49 -4h710l49 4q16 0 26.5 -11t10.5 -26t-10.5 -26t-26.5 -11l-49 4h-710z" />
<glyph unicode="&#x2018;" horiz-adv-x="236" d="M118 605q0 -7 13 -7t27 -14.5t14 -34t-14 -33.5t-37.5 -14t-40.5 22t-17 60q0 70 42 118q15 18 30.5 18t24.5 -8.5t9 -23t-25.5 -34.5t-25.5 -49z" />
<glyph unicode="&#x2019;" horiz-adv-x="236" d="M118 618q0 7 -13 7t-27 14.5t-14 34t14 33.5t37.5 14t39.5 -22q18 -22 18 -60q0 -70 -42 -118q-15 -18 -30.5 -18t-24.5 8.5t-9 23t25.5 34.5t25.5 49z" />
<glyph unicode="&#x201a;" horiz-adv-x="236" d="M118 -13q0 7 -13 7t-27 14.5t-14 34t14 33.5t37.5 14t39.5 -22q18 -22 18 -60q0 -70 -42 -118q-15 -18 -30.5 -18t-24.5 8.5t-9 23t25.5 34.5t25.5 49z" />
<glyph unicode="&#x201c;" horiz-adv-x="372" d="M254 605q0 -7 13 -7t27 -14.5t14 -34t-14 -33.5t-37.5 -14t-40.5 22t-17 60q0 70 42 118q15 18 30.5 18t24.5 -8.5t9 -23t-25.5 -34.5t-25.5 -49zM122 504q-56 0 -58 74v6q0 32 10 64q23 72 63 72q12 0 20.5 -8t8.5 -22.5t-24 -33t-24 -50.5q0 -7 14 -7t27 -14t13 -34.5 t-14.5 -33.5t-35.5 -13z" />
<glyph unicode="&#x201d;" horiz-adv-x="378" d="M260 618q0 7 -13 7t-27 14.5t-14 34t14 33.5t37.5 14t40.5 -21q17 -23 17 -61q0 -70 -42 -118q-15 -18 -30.5 -18t-24.5 8.5t-9 23t25.5 34.5t25.5 49zM161 576q-11 -34 -27.5 -53t-31.5 -19q-33 0 -33 29q0 16 24 34.5t24 50.5q0 7 -14 7t-27 14t-13 34.5t14.5 33.5 t35.5 13q56 0 58 -74v-6q0 -32 -10 -64z" />
<glyph unicode="&#x201e;" horiz-adv-x="378" d="M260 -13q0 7 -13 7t-27 14.5t-14 34t14 33.5t37.5 14t40.5 -21q17 -23 17 -61q0 -70 -42 -118q-15 -18 -30.5 -18t-24.5 8.5t-9 23t25.5 34.5t25.5 49zM161 -55q-11 -34 -27.5 -53t-31.5 -19q-33 0 -33 29q0 16 24 34.5t24 50.5q0 7 -14 7t-27 14t-13 34.5t14.5 33.5 t35.5 13q56 0 58 -74v-6q0 -32 -10 -64z" />
<glyph unicode="&#x2022;" horiz-adv-x="343" d="M58 270q0 47 33 80.5t80.5 33.5t80.5 -33.5t33 -81t-33 -81t-80.5 -33.5t-80.5 34t-33 81z" />
<glyph unicode="&#x2026;" horiz-adv-x="582" d="M471 -6q-19 0 -33.5 14t-14.5 34t14.5 34t33.5 14t33.5 -14t14.5 -34t-14.5 -34t-33.5 -14zM291 -6q-19 0 -33.5 14t-14.5 34t14.5 34t33.5 14t33.5 -14t14.5 -34t-14.5 -34t-33.5 -14zM111 -6q-19 0 -33.5 14t-14.5 34t14.5 34t33.5 14t33.5 -14t14.5 -34t-14.5 -34 t-33.5 -14z" />
<glyph unicode="&#x202f;" horiz-adv-x="190" />
<glyph unicode="&#x2039;" horiz-adv-x="345" d="M270 92q-10 -10 -24 -10t-22 6.5t-15.5 15.5t-13.5 14l-111 96q-4 4 -16 12q-30 22 -30 42q0 23 31 45q10 7 15 12l111 100q6 5 13 14q19 22 35.5 22t26.5 -10t10 -25.5t-9.5 -23.5t-20.5 -14.5t-18 -12.5l-127 -104l126 -102q7 -6 18.5 -13t21 -15t9.5 -23.5t-10 -25.5z " />
<glyph unicode="&#x203a;" horiz-adv-x="345" d="M135.5 104q-7.5 -9 -15.5 -15.5t-22 -6.5t-24 10t-10 25.5t9.5 23.5t21 15t18.5 13l125 102l-126 104q-7 6 -18 12.5t-20.5 14.5t-9.5 23.5t10 25.5t24 10t22 -6.5t15.5 -15.5t13.5 -14l111 -100q5 -5 15 -12t20.5 -16t10.5 -25.5t-9 -26.5t-21 -18.5t-16 -12.5l-111 -96 q-6 -5 -13.5 -14z" />
<glyph unicode="&#x205f;" horiz-adv-x="238" />
<glyph unicode="&#x20ac;" horiz-adv-x="627" d="M94 369l-49 -4q-16 0 -25.5 9.5t-9.5 24t9.5 24t25.5 9.5l49 -4h12q19 116 91 190.5t185 74.5t179 -83q19 -22 19 -38.5t-10.5 -27.5t-31.5 -11t-32.5 30.5t-49.5 49t-83 18.5q-79 0 -130 -58t-65 -145h148l48 4q16 0 25.5 -9.5t9.5 -24t-9.5 -24t-25.5 -9.5l-48 4h-153 v-15q0 -23 2 -51h118l48 4q15 0 24.5 -9.5t9.5 -24.5t-9.5 -25t-24.5 -10l-48 4h-110q19 -88 67 -140t125 -52q107 0 135 72q4 12 14.5 20t23.5 8t23.5 -10.5t10.5 -26.5t-16 -35q-70 -91 -194 -91q-95 0 -166 66t-95 189h-17l-49 -4q-15 0 -25 10t-10 25t10 24.5t25 9.5 l49 -4h11q-2 42 -2 66h-9z" />
<glyph unicode="&#x2122;" horiz-adv-x="604" d="M271 650l-2 33q0 12 7.5 20t18.5 8h7q18 0 29 -25q4 -10 6 -13l61 -123q10 -17 14 -29q3 9 13 29l74 148q8 13 23 13h5q12 0 19.5 -8t7.5 -20l-3 -33v-161l2 -33q0 -12 -7.5 -20t-19.5 -8t-19.5 8t-7.5 20l3 33l2 102q0 6 0.5 20.5t0.5 21.5l-60 -126q-2 -3 -5.5 -11.5 t-4.5 -10.5q-7 -15 -24 -15t-24 15q-1 2 -4.5 10.5t-5.5 11.5l-61 125q2 -26 2 -41l2 -102l2 -33q0 -12 -7.5 -20t-19.5 -8t-19.5 8t-7.5 20l3 33v161zM145 489l2 -33q0 -12 -7.5 -20t-19.5 -8t-19.5 8t-7.5 20l3 33v178h-41l-30 -4q-25 0 -25 24q0 10 7 17t18 7h190 q11 0 18.5 -7t7.5 -17q0 -24 -25 -24l-30 4h-41v-178z" />
<glyph horiz-adv-x="220" />
</font>
</defs>
</svg>
